<svg fill="none" xmlns="http://www.w3.org/2000/svg" viewBox="0 0 555 566">
  <mask id="a" style="mask-type:alpha" maskUnits="userSpaceOnUse" x="0" y="0" width="555" height="566">
    <path fill="#C4C4C4" d="M0 0h555v566H0z"/>
  </mask>
  <g mask="url(#a)">
    <path d="M452.353 76.318c8.731 7.364 9.848 20.434 2.491 29.192-7.358 8.759-20.4 9.885-29.131 2.521-8.731-7.364-9.849-20.434-2.491-29.193 7.357-8.758 20.4-9.884 29.131-2.52Z" fill="#fff" stroke="#E5E5E5" stroke-width="2"/>
    <path d="m433.136 87 .89 10.418m10.866-.503L433.136 87l11.756 9.915ZM433.136 87l10.396-.9-10.396.9Z" stroke="#E5E5E5" stroke-width="1.5" stroke-linecap="round" stroke-linejoin="round"/>
    <path d="M139.489 444.462c8.731 7.365 9.849 20.434 2.492 29.193-7.358 8.759-20.4 9.885-29.131 2.521-8.731-7.365-9.849-20.434-2.492-29.193 7.358-8.759 20.4-9.885 29.131-2.521Z" fill="#fff" stroke="#E5E5E5" stroke-width="2"/>
    <path d="m131.954 464.191-.889-10.418m-10.866.503 11.755 9.915-11.755-9.915Zm11.755 9.915-10.396.9 10.396-.9Z" stroke="#E5E5E5" stroke-width="1.5" stroke-linecap="round" stroke-linejoin="round"/>
    <path d="M163.105 487.794a.997.997 0 0 0-1.361.378 1.002 1.002 0 0 0 .379 1.364l.982-1.742Zm306.299-364.061a.999.999 0 1 0-1.545 1.267l1.545-1.267Zm-3.954 309.156c-75.814 90.253-203.523 110.883-302.345 54.905l-.982 1.742c99.646 56.446 228.414 35.645 304.857-55.357l-1.53-1.29ZM467.859 125c71.904 88.022 73.406 217.636-2.409 307.889l1.53 1.29c76.443-91.002 74.929-221.69 2.424-310.446L467.859 125Z" fill="#E5E5E5"/>
    <path d="M402.895 70.206a.997.997 0 0 0 1.361-.378 1.002 1.002 0 0 0-.379-1.364l-.982 1.742Zm-306.3 364.061A.999.999 0 1 0 98.142 433l-1.545 1.267Zm3.955-309.156c75.814-90.254 203.523-110.883 302.345-54.905l.982-1.742C304.231 12.019 175.463 32.819 99.02 123.82l1.53 1.29ZM98.141 433c-71.904-88.022-73.406-217.636 2.409-307.889l-1.53-1.29c-76.443 91.002-74.928 221.69-2.424 310.446L98.14 433Z" fill="#386DF5"/>
    <g opacity=".15" filter="url(#b)">
      <ellipse rx="214.623" ry="215.34" transform="rotate(22.028 -544.083 864.073) skewX(.056)" fill="#386DF5"/>
    </g>
  </g>
  <defs>
    <filter id="b" x="-30.346" y="-48.228" width="629.415" height="630.739" filterUnits="userSpaceOnUse" color-interpolation-filters="sRGB">
      <feFlood flood-opacity="0" result="BackgroundImageFix"/>
      <feBlend in="SourceGraphic" in2="BackgroundImageFix" result="shape"/>
      <feGaussianBlur stdDeviation="50" result="effect1_foregroundBlur_154_162"/>
    </filter>
  </defs>
</svg>
