<svg fill="none" xmlns="http://www.w3.org/2000/svg" viewBox="0 0 572 153">
  <path d="M499.18 78.743V93.4m0-14.657L556.42 36.4 487.3 76.029m11.88 2.714 12.42 2.848m-24.3-5.562L463 69.514 571 25l-41.04 60.8-18.36-4.21m-24.3-5.561L499.18 101l12.42-19.41" stroke="#386DF5" stroke-width="2" stroke-linecap="round" stroke-linejoin="round"/>
  <path d="M485 109.263c-50.353 68.681-90.434 39.428-104.179 16.216-11.938-18.64-42.432-51.793-68.911-35.289-26.479 16.505-19.714 39.813-13.022 49.405 31.254 20.413 51.004-14.297 56.973-34.203 3.436-31.49-7.488-96.312-78.677-103.696-71.189-7.383-102.371 45.785-109.063 73.293C156.184 113.897 106.048 157.619 1 21.24" stroke="#386DF5" stroke-width="2" stroke-linecap="round" stroke-linejoin="round" stroke-dasharray="8 8"/>
</svg>
