<svg fill="none" xmlns="http://www.w3.org/2000/svg" viewBox="0 0 171 43">
  <path d="M52.526 28.333c-1.273 0-2.424-.28-3.454-.838a6.33 6.33 0 0 1-2.4-2.332c-.581-.997-.872-2.114-.872-3.353 0-1.24.29-2.35.873-3.335a6.126 6.126 0 0 1 2.417-2.332c1.03-.571 2.181-.857 3.454-.857.993 0 1.902.17 2.726.51a5.5 5.5 0 0 1 2.109 1.477l-1.182 1.148c-.957-1.009-2.15-1.513-3.58-1.513-.946 0-1.8.213-2.564.638a4.665 4.665 0 0 0-1.8 1.767c-.423.741-.635 1.574-.635 2.497 0 .923.212 1.761.636 2.515a4.705 4.705 0 0 0 1.8 1.749c.763.425 1.617.638 2.562.638 1.418 0 2.612-.51 3.581-1.531l1.182 1.148a5.638 5.638 0 0 1-2.127 1.494c-.824.34-1.733.51-2.727.51Zm7.191-13.666h1.745v13.52h-1.745v-13.52ZM73.5 23.413c0 .134-.011.31-.036.529h-7.816c.11.85.479 1.537 1.11 2.059.641.51 1.435.765 2.38.765 1.151 0 2.078-.388 2.781-1.166l.964 1.13c-.436.51-.982.899-1.636 1.166-.642.267-1.364.4-2.163.4-1.018 0-1.92-.206-2.709-.619a4.6 4.6 0 0 1-1.835-1.767c-.425-.753-.637-1.604-.637-2.551 0-.936.206-1.78.618-2.533.424-.753 1-1.337 1.727-1.75.74-.425 1.57-.637 2.49-.637.921 0 1.74.212 2.454.637a4.27 4.27 0 0 1 1.69 1.75c.413.753.619 1.616.619 2.587Zm-4.762-3.498c-.836 0-1.539.255-2.108.765-.557.51-.885 1.178-.982 2.005h6.18c-.097-.814-.43-1.476-1-1.987-.557-.522-1.254-.783-2.09-.783Zm10.428-1.476c1.333 0 2.35.328 3.053.984.715.656 1.073 1.634 1.073 2.934v5.83h-1.654v-1.275c-.291.45-.71.796-1.255 1.039-.533.23-1.169.346-1.908.346-1.078 0-1.945-.261-2.6-.784-.642-.522-.963-1.208-.963-2.059 0-.85.31-1.53.927-2.04.618-.523 1.6-.784 2.945-.784h2.763v-.346c0-.754-.218-1.33-.654-1.732-.437-.4-1.079-.6-1.927-.6-.57 0-1.127.096-1.672.29a4.177 4.177 0 0 0-1.382.748l-.727-1.312a5.15 5.15 0 0 1 1.781-.911 7.244 7.244 0 0 1 2.2-.328Zm-.4 8.51c.666 0 1.242-.146 1.727-.438a2.601 2.601 0 0 0 1.054-1.275v-1.349h-2.69c-1.479 0-2.218.498-2.218 1.494 0 .486.188.869.564 1.148.375.28.896.42 1.563.42Zm12.899-8.51c1.224 0 2.194.358 2.908 1.075.728.704 1.091 1.743 1.091 3.116v5.558h-1.745V22.83c0-.935-.224-1.64-.672-2.113-.449-.474-1.091-.711-1.927-.711-.945 0-1.69.28-2.236.838-.545.547-.818 1.336-.818 2.369v4.975h-1.745V18.53h1.672v1.458a3.405 3.405 0 0 1 1.418-1.148c.606-.268 1.29-.401 2.054-.401Zm7.483-3.007h5.362c1.345 0 2.539.267 3.581.802 1.042.534 1.848 1.287 2.417 2.26.582.96.873 2.064.873 3.316 0 1.251-.291 2.363-.873 3.335-.569.96-1.375 1.706-2.417 2.24-1.042.535-2.236.803-3.581.803h-5.362V15.432Zm5.253 11.17c1.03 0 1.933-.2 2.708-.601.788-.401 1.394-.96 1.818-1.677.424-.728.636-1.567.636-2.514 0-.948-.212-1.78-.636-2.497a4.31 4.31 0 0 0-1.818-1.694c-.775-.401-1.678-.602-2.708-.602h-3.435v9.585h3.435Zm13.018-8.163c1.333 0 2.351.328 3.053.984.715.656 1.073 1.634 1.073 2.934v5.83h-1.654v-1.275c-.291.45-.709.796-1.254 1.039-.534.23-1.17.346-1.909.346-1.078 0-1.945-.261-2.599-.784-.643-.522-.964-1.208-.964-2.059 0-.85.309-1.53.927-2.04.618-.523 1.6-.784 2.945-.784h2.763v-.346c0-.754-.218-1.33-.654-1.732-.437-.4-1.079-.6-1.927-.6a4.94 4.94 0 0 0-1.672.29 4.176 4.176 0 0 0-1.382.748l-.727-1.312a5.156 5.156 0 0 1 1.781-.911 7.247 7.247 0 0 1 2.2-.328Zm-.4 8.51c.666 0 1.242-.146 1.727-.438a2.604 2.604 0 0 0 1.054-1.275v-1.349h-2.69c-1.479 0-2.218.498-2.218 1.494 0 .486.188.869.564 1.148.375.28.896.42 1.563.42Zm13.172.674a2.72 2.72 0 0 1-.945.51c-.376.11-.764.164-1.164.164-.969 0-1.72-.261-2.254-.784-.533-.522-.799-1.27-.799-2.241v-5.303h-1.636v-1.44h1.636v-2.113h1.745v2.114h2.762v1.44h-2.762v5.23c0 .521.127.922.381 1.202.267.28.643.419 1.127.419.533 0 .988-.152 1.364-.456l.545 1.258Zm5.618-9.184c1.333 0 2.35.328 3.053.984.715.656 1.073 1.634 1.073 2.934v5.83h-1.654v-1.275c-.291.45-.709.796-1.255 1.039-.533.23-1.169.346-1.908.346-1.079 0-1.945-.261-2.599-.784-.643-.522-.964-1.208-.964-2.059 0-.85.309-1.53.927-2.04.618-.523 1.6-.784 2.945-.784h2.763v-.346c0-.754-.218-1.33-.655-1.732-.436-.4-1.078-.6-1.926-.6a4.95 4.95 0 0 0-1.673.29 4.18 4.18 0 0 0-1.381.748l-.727-1.312a5.156 5.156 0 0 1 1.781-.911 7.247 7.247 0 0 1 2.2-.328Zm-.4 8.51c.666 0 1.242-.146 1.727-.438a2.604 2.604 0 0 0 1.054-1.275v-1.349h-2.69c-1.479 0-2.218.498-2.218 1.494 0 .486.188.869.564 1.148.375.28.896.42 1.563.42Zm11.718 1.384a8.93 8.93 0 0 1-2.781-.437c-.885-.304-1.582-.692-2.091-1.166l.673-1.422c.484.438 1.102.796 1.854 1.076.763.267 1.545.4 2.345.4 1.054 0 1.841-.176 2.363-.528.521-.364.781-.844.781-1.44 0-.437-.145-.79-.436-1.056a2.704 2.704 0 0 0-1.054-.638c-.412-.146-1-.31-1.763-.492-.958-.231-1.733-.462-2.327-.693a3.962 3.962 0 0 1-1.509-1.056c-.412-.486-.618-1.136-.618-1.95 0-.68.176-1.294.527-1.84.364-.547.909-.985 1.636-1.313.727-.328 1.63-.492 2.709-.492.751 0 1.49.097 2.217.292.727.194 1.351.474 1.872.838l-.599 1.458a6.36 6.36 0 0 0-1.709-.765 6.165 6.165 0 0 0-1.781-.274c-1.03 0-1.806.188-2.327.565-.509.377-.763.863-.763 1.458 0 .437.145.796.436 1.075.291.267.648.48 1.072.638a20.13 20.13 0 0 0 1.763.473c.958.231 1.727.462 2.309.693.581.23 1.078.583 1.49 1.057.424.474.636 1.111.636 1.913a3.3 3.3 0 0 1-.545 1.84c-.363.547-.915.985-1.654 1.313-.739.315-1.648.473-2.726.473Zm16.033-4.92c0 .134-.012.31-.036.529h-7.816c.109.85.479 1.537 1.109 2.059.642.51 1.436.765 2.381.765 1.151 0 2.078-.388 2.781-1.166l.963 1.13a4.2 4.2 0 0 1-1.636 1.166c-.642.267-1.363.4-2.163.4-1.018 0-1.92-.206-2.708-.619a4.596 4.596 0 0 1-1.836-1.767c-.424-.753-.636-1.604-.636-2.551 0-.936.206-1.78.618-2.533.424-.753 1-1.337 1.727-1.75.739-.425 1.569-.637 2.49-.637.921 0 1.739.212 2.454.637a4.27 4.27 0 0 1 1.69 1.75c.412.753.618 1.616.618 2.587Zm-4.762-3.498c-.836 0-1.539.255-2.109.765-.557.51-.884 1.178-.981 2.005h6.18c-.097-.814-.43-1.476-1-1.987-.557-.522-1.254-.783-2.09-.783ZM171 27.623a2.71 2.71 0 0 1-.945.51c-.376.11-.764.164-1.163.164-.97 0-1.721-.261-2.254-.784-.534-.522-.8-1.27-.8-2.241v-5.303h-1.636v-1.44h1.636v-2.113h1.745v2.114h2.763v1.44h-2.763v5.23c0 .521.127.922.382 1.202.266.28.642.419 1.126.419.534 0 .988-.152 1.364-.456l.545 1.258Z" fill="#2A2A2A"/>
  <path d="m21.449 1 7.278 2.886 7.182 3.118 3.11 7.2 2.879 7.296-2.88 7.296-3.11 7.2-7.181 3.118L21.449 42l-7.278-2.886-7.182-3.118-3.11-7.2L1 21.5l2.879-7.296 3.11-7.2 7.182-3.118L21.45 1Z" stroke="#2A2A2A"/>
  <path fill-rule="evenodd" clip-rule="evenodd" d="m27.649 6.496-6.2-2.459-6.2 2.459-6.117 2.656-2.65 6.133L4.03 21.5l2.452 6.215 2.65 6.133 6.117 2.656 6.2 2.459 6.2-2.459 6.117-2.656 2.65-6.133 2.453-6.215-2.453-6.215-2.65-6.133-6.117-2.656Zm-3.364 12.567c-1.08.136-3.241.163-3.241-.812 0-.975 2.7-.677 4.051-.406 1.485.406 4.7 1.787 5.671 4.061-.135.542-1.134 2.112-4.05 4.061 1.755-.27 5.752-1.543 7.696-4.467-1.35-2.03-5.428-6.092-10.937-6.092-5.51 0-6.617 3.52-6.482 5.28.54 1.489 2.512 4.06 6.077 2.437.945-.407 2.511-1.787 1.215-4.062Zm-7.697-2.03c-1.35.677-4.051 2.518-4.051 4.467 0 1.95 4.32 3.52 6.481 4.061 2.026.136 6.644-.325 8.913-3.249-1.35 2.437-5.672 6.742-12.153 4.467-1.62-.541-5.267-2.355-6.887-5.279.54-1.083 2.835-3.493 7.697-4.467Z" fill="#2A2A2A"/>
</svg>
