<?xml version="1.0" standalone="no"?>
<!DOCTYPE svg PUBLIC "-//W3C//DTD SVG 20010904//EN"
 "http://www.w3.org/TR/2001/REC-SVG-20010904/DTD/svg10.dtd">
<svg version="1.0" xmlns="http://www.w3.org/2000/svg"
 width="512.000000pt" height="512.000000pt" viewBox="0 0 512.000000 512.000000"
 preserveAspectRatio="xMidYMid meet">
<metadata>
Created by potrace 1.14, written by Peter Selinger 2001-2017
</metadata>
<g transform="translate(0.000000,512.000000) scale(0.100000,-0.100000)"
fill="#000000" stroke="none">
<path d="M0 2560 l0 -2560 2560 0 2560 0 0 2560 0 2560 -2560 0 -2560 0 0
-2560z m3075 2112 c369 -147 1092 -456 1112 -476 31 -30 655 -1534 656 -1581
1 -24 -331 -846 -484 -1199 -92 -214 -170 -390 -171 -391 -19 -15 -904 -389
-1196 -504 l-384 -152 -416 166 c-229 91 -586 239 -792 328 l-375 163 -171
395 c-94 217 -241 574 -328 793 l-157 399 160 406 c89 223 236 581 329 794
l168 388 369 161 c204 88 559 236 790 328 l420 167 60 -23 c33 -12 218 -85
410 -162z"/>
<path d="M2215 4587 c-209 -84 -544 -224 -745 -311 l-365 -158 -162 -377 c-89
-207 -229 -545 -311 -751 l-148 -375 152 -385 c84 -212 224 -551 311 -754
l160 -369 374 -162 c374 -162 1098 -455 1126 -455 47 0 1467 590 1499 623 21
21 323 733 476 1121 l149 379 -142 361 c-120 305 -430 1042 -473 1123 -10 20
-90 58 -387 187 -346 150 -1103 457 -1125 455 -5 0 -180 -69 -389 -152z m725
-240 c184 -73 480 -196 657 -272 l322 -140 145 -335 c119 -277 377 -913 393
-971 9 -30 -504 -1287 -541 -1325 -29 -30 -1267 -544 -1311 -544 -43 0 -1280
513 -1311 544 -28 27 -544 1273 -544 1312 0 22 268 688 400 993 l141 327 317
137 c256 111 972 404 992 406 3 1 156 -59 340 -132z"/>
<path d="M2685 3260 c-279 -32 -482 -185 -540 -407 -34 -130 -5 -221 107 -335
138 -142 332 -166 535 -67 152 73 209 223 144 375 l-21 49 -118 0 c-170 0
-245 33 -227 102 10 40 64 57 185 56 58 0 134 -6 170 -12 263 -47 560 -229
653 -399 27 -50 27 -52 11 -84 -46 -91 -165 -212 -326 -333 -43 -31 -78 -59
-78 -60 0 -8 147 32 230 62 170 63 281 125 408 227 68 54 162 162 162 185 0
20 -99 138 -188 222 -326 312 -723 462 -1107 419z"/>
<path d="M1950 3061 c-189 -56 -333 -122 -455 -209 -83 -58 -184 -157 -210
-206 l-19 -35 39 -58 c21 -32 79 -99 129 -148 203 -202 524 -367 784 -405 131
-19 327 -8 436 24 108 32 257 108 347 175 75 57 191 176 239 246 l33 48 -65
-55 c-155 -131 -349 -209 -608 -244 -162 -21 -232 -18 -341 15 -348 105 -562
239 -600 374 -35 128 103 315 341 461 41 25 68 46 60 45 -8 0 -58 -13 -110
-28z"/>
</g>
</svg>
