<svg fill="none" xmlns="http://www.w3.org/2000/svg" viewBox="0 0 632 632">
  <path d="M399.361 70.118c10.873 3.556 16.809 15.262 13.257 26.148-3.552 10.887-15.247 16.828-26.12 13.273-10.872-3.555-16.809-15.262-13.257-26.148 3.552-10.887 15.247-16.828 26.12-13.273Z" fill="#fff" stroke="#E5E5E5" stroke-width="2"/>
  <path d="m385.512 87.241 4.732 9.33m9.906-4.544-14.638-4.786 14.638 4.786Zm-14.638-4.786 9.321-4.736-9.321 4.736Z" stroke="#E5E5E5" stroke-width="1.5" stroke-linecap="round" stroke-linejoin="round"/>
  <path d="M246.696 529.072c10.873 3.555 16.81 15.261 13.258 26.148-3.552 10.886-15.247 16.827-26.12 13.272-10.873-3.555-16.809-15.261-13.257-26.148 3.552-10.886 15.247-16.827 26.119-13.272Z" fill="#fff" stroke="#E5E5E5" stroke-width="2"/>
  <path d="m247.091 550.203-4.731-9.331m-9.907 4.545 14.638 4.786-14.638-4.786Zm14.638 4.786-9.321 4.736 9.321-4.736Z" stroke="#E5E5E5" stroke-width="1.5" stroke-linecap="round" stroke-linejoin="round"/>
  <path d="M284.876 560.408a1 1 0 1 0-.26 1.983l.26-1.983Zm148.096-452.702a1 1 0 1 0-.96 1.754l.96-1.754Zm112.204 288.285c-36.603 112.183-147.512 179.256-260.3 164.417l-.26 1.983c113.726 14.962 225.554-52.665 262.461-165.779l-1.901-.621ZM432.012 109.46c99.792 54.67 149.768 174.348 113.164 286.531l1.901.621c36.907-113.113-13.483-233.782-114.105-288.906l-.96 1.754Z" fill="#E5E5E5"/>
  <path d="M351.124 83.012a1 1 0 1 0 .26-1.984l-.26 1.984ZM203.028 535.714a1 1 0 0 0 .96-1.755l-.96 1.755ZM90.824 247.429c36.603-112.183 147.512-179.256 260.3-164.417l.26-1.984C237.658 66.066 125.83 133.694 88.923 246.807l1.9.622Zm113.164 286.53C104.196 479.29 54.22 359.611 90.824 247.429l-1.901-.622C52.016 359.921 102.406 480.59 203.028 535.714l.96-1.755Z" fill="#386DF5"/>
  <g opacity=".15" filter="url(#a)">
    <ellipse cx="316.376" cy="315.691" rx="215.412" ry="215.64" fill="#386DF5"/>
  </g>
  <path d="M320.888 517.086c-52.409 0-101.679-20.232-138.738-56.973-37.061-36.74-57.47-85.588-57.47-137.547 0-51.96 20.409-100.808 57.47-137.548 37.059-36.738 86.329-56.97 138.738-56.97 52.41 0 101.68 20.232 138.738 56.97 37.061 36.74 57.471 85.588 57.471 137.548 0 51.959-20.41 100.807-57.471 137.547-37.058 36.738-86.331 56.973-138.738 56.973Zm0-387.896c-107.562 0-195.071 86.748-195.071 193.376 0 106.627 87.509 193.378 195.071 193.378 107.563 0 195.071-86.748 195.071-193.378 0-106.63-87.508-193.376-195.071-193.376Z" fill="#2A2A2A"/>
  <path d="M308.833 192.628c-.283 0-.57-.028-.86-.082-2.823-.536-5.731-3.624-7.779-8.265-1.551-3.516-1.429-10.08-1.31-16.431.096-5.151.187-10.016-.68-12.253-1.588-4.096-3.253-4.058-6.894-3.979-.525.012-1.086.024-1.684.024-3.498 0-5.763-1.951-6.639-3.621-.495-.943-.556-1.811-.164-2.377 6.476-9.418 27.6-7.025 38.948-5.741 13.212 1.498 20.001 7.156 19.116 15.935-.888 8.805-19.2 18.948-21.286 20.076-2.164 1.169-3.11 4.496-4.023 7.715-.808 2.847-1.645 5.789-3.37 7.502-.998.989-2.149 1.497-3.373 1.497h-.002Zm-16.245-42.168c2.961 0 5.03.482 6.677 4.726.948 2.447.857 7.422.756 12.688-.109 5.934-.236 12.662 1.212 15.946 1.869 4.232 4.531 7.147 6.948 7.605 1.173.225 2.256-.149 3.218-1.104 1.514-1.499 2.308-4.297 3.076-7.001.979-3.444 1.99-7.006 4.578-8.405 7.368-3.984 20.019-12.508 20.694-19.187.824-8.173-5.437-13.251-18.111-14.688-11.11-1.258-31.792-3.602-37.881 5.254-.089.131-.1.559.236 1.2.787 1.5 2.833 3.011 5.633 3.011.589 0 1.14-.012 1.658-.023.453-.01.888-.019 1.303-.019l.003-.003Zm-32.061 346.602c-2.13 0-4.687-1.175-6.467-2.756-4.119-3.651-11.759-19.315-15.21-28.492-2.728-7.254-4.155-29.839-5.101-44.785-.285-4.489-.53-8.365-.74-10.606-.729-7.745-3.945-8.947-12.544-12.164-1.378-.515-2.938-1.097-4.619-1.761-12.273-4.838-13.396-9.423-13.151-19.503.021-.912-.063-2.103-.161-3.483-.421-5.941-1.058-14.917 5.222-20.487 5.591-4.957 8.54-21.027 8.22-27.778-.112-2.34 1.241-4.496 3.527-5.629 4.461-2.208 11.997-4.093 22.574-.545 4.407 1.479 6.418 3.888 8.363 6.22 1.628 1.949 3.31 3.965 6.465 5.54 2.223 1.108 4.965 1.787 7.616 2.444 5.549 1.376 11.284 2.796 9.953 8.405-.483 2.042-.089 4.117 1.177 6.166 3.06 4.96 10.708 9.187 20.982 11.598 8.669 2.035 15.084 7.668 15.603 13.701.334 3.881-1.932 7.151-6.21 8.974-10.832 4.61-10.655 7.96-9.41 13.483.47 2.084 1.334 4.26 2.168 6.365 1.553 3.918 2.895 7.301 1.233 9.072-2.38 2.531-10.173 4.907-13.574 5.663-3.237.718-7.114 4.435-7.971 10.903-.901 6.8-12.151 24.317-18.737 31.713-5.899 6.627-3.428 12.298 1.5 23.592.404.926.824 1.89 1.256 2.891 2.371 5.497 2.511 9.055.416 10.573-.656.478-1.479.686-2.378.686h-.002Zm-29.749-178.821c-4.642 0-8.232 1.146-10.771 2.402-1.873.926-2.982 2.671-2.891 4.55.339 7.125-2.669 23.427-8.601 28.688-5.86 5.196-5.246 13.835-4.842 19.552.101 1.408.187 2.622.164 3.59-.234 9.715.775 13.821 12.431 18.413 1.673.659 3.228 1.239 4.601 1.754 8.574 3.205 12.485 4.667 13.279 13.126.213 2.257.446 5.958.743 10.641.941 14.877 2.363 37.362 5.031 44.455 3.409 9.069 10.908 24.503 14.9 28.04 2.162 1.916 5.794 3.179 7.419 2 1.558-1.129 1.278-4.397-.794-9.198-.432-1.001-.85-1.962-1.254-2.886-4.958-11.371-7.691-17.636-1.305-24.808 6.497-7.296 17.578-24.492 18.456-31.102.935-7.049 5.122-11.039 8.854-11.867 4.066-.901 11.007-3.219 12.992-5.332 1.165-1.239-.112-4.458-1.462-7.866-.85-2.146-1.731-4.363-2.221-6.534-1.469-6.51-.953-10.091 10.075-14.784 3.853-1.64 5.815-4.419 5.521-7.825-.39-4.536-5.164-10.442-14.727-12.688-10.566-2.479-18.473-6.894-21.689-12.108-1.432-2.318-1.873-4.683-1.315-7.032 1.018-4.29-2.803-5.469-9.12-7.034-2.711-.671-5.514-1.366-7.849-2.531-3.368-1.679-5.129-3.789-6.831-5.827-1.93-2.311-3.751-4.493-7.852-5.869-4.134-1.387-7.777-1.916-10.935-1.916l-.007-.004Zm169.965 125.133c-1.2 0-2.335-.601-3.344-1.79-5.243-6.161-6.495-29.107 1.506-40.834 9.186-13.462 3.076-23.968.024-27.86-2.352-2.999-2.728-16.143-2.63-26.642l.005-.592c0-.128.018-.329.044-.591.164-1.621.544-5.416-2.503-8.284-3.831-3.602-11.624-4.461-23.158-2.556-10.022 1.656-17.388.163-21.895-4.433-4.932-5.032-6.345-13.502-4.204-25.18 1.035-5.647.098-10.192-.728-14.204-.489-2.365-.949-4.601-.949-6.786 0-6.737 9.256-12.321 17.023-15.82 4.676-2.108 7.985-4.611 11.187-7.032 2.968-2.246 5.771-4.365 9.274-5.794 5.063-2.066 7.151 1.445 9.166 4.842 1.105 1.862 2.249 3.787 3.924 5.172 1.906 1.574 3.139 1.008 5.007.152 2.541-1.165 5.706-2.618 11.614 1.046 7.123 4.411 15.092 2.484 18.233-.209.798-.685 2.041-2.067 1.382-3.632-.845-2.01-2.653-2.679-4.745-3.453-2.735-1.011-5.834-2.157-7.763-6.461-2.123-4.735 1.677-7.715 5.35-10.595 2.445-1.918 4.975-3.901 5.456-6.292.474-2.351-.635-5.387-3.043-8.335-2.541-3.111-6.014-5.457-8.081-5.457-1.259 0-1.595 2.358-1.983 5.09-.602 4.239-1.427 10.042-6.59 11.834-3.333 1.158-6.044-.093-9.795-1.825-3.671-1.693-8.242-3.801-15.495-4.765-4.501-.598-8.088-.397-10.97-.236-4.348.243-7.49.419-10.224-2.341-3.34-3.371-4.363-9.341-2.186-12.775 2.681-4.232 7.646-5.937 15.166-5.219 4.937.475 8.69-.246 10.857-2.079 1.728-1.465 1.864-3.109 1.869-3.18 1.702-11.815.093-15.712-1.553-16.908-1.243-.9-2.798-.449-3.884.089-.421.227-1.665 2.326-2.763 4.178-3.038 5.128-7.142 12.052-10.972 12.052-.212 0-.423-.021-.633-.065-2.753-.576-4.598-4.925-5.638-13.297-1.494-12.016-.102-19.675 4.137-22.758 3.76-2.737 8.297-.789 8.739-.587 7.991 2.786 14.285 2.772 18.709-.038 5.086-3.233 6.744-9.544 7.237-14.269a3.368 3.368 0 0 1 1.731-2.601 3.348 3.348 0 0 1 3.118-.05c47.701 24.176 83.764 67.16 98.944 117.936 2.289 7.651 1.343 16.021-2.592 22.964-.92 1.624-1.945 3.081-3.043 4.332-3.888 4.424-3.288 8.712-2.758 12.494.39 2.786.759 5.42-1.004 7.362-.533.587-1.072 1.385-1.593 2.154-1.271 1.881-2.585 3.825-4.307 3.476-1.996-.402-4.61-3.679-8.846-24.924-5.416-27.168-17.677-28.792-22.698-28.225a.524.524 0 0 0-.465.388.476.476 0 0 0 .189.526c3.24 2.417 8.793 7.334 9.576 13.105.373 2.762-.393 5.396-2.28 7.829-7.186 9.261-9.103 17.395-5.399 22.904 3.641 5.413 4.166 9.445 2.162 16.599-.733 2.613-2.945 5.366-5.287 8.281-4.489 5.586-9.578 11.916-5.61 18.994 6.586 11.751-9.071 47.997-19.758 56.147-4.979 3.797-9.493 9.242-13.858 14.508-5.037 6.077-9.797 11.816-14.608 14.087-.61.288-1.21.43-1.796.43l.002.003Zm-19.517-111.262c6.189 0 10.675 1.284 13.396 3.844 3.459 3.251 3.022 7.593 2.859 9.228-.021.21-.04.374-.04.477l-.005.604c-.135 14.37.734 23.82 2.387 25.926 3.209 4.089 9.634 15.12.024 29.207-7.759 11.369-6.621 33.526-1.581 39.449 1.165 1.371 2.405 1.72 3.788 1.067 4.582-2.164 9.262-7.808 14.218-13.785 4.407-5.315 8.963-10.812 14.045-14.686 5.079-3.874 11.521-14.47 16.03-26.37 4.872-12.861 6.152-23.444 3.424-28.312-4.344-7.752 1.002-14.4 5.717-20.267 2.268-2.821 4.409-5.486 5.077-7.874 2.13-7.603 1.049-11.107-2.011-15.654-2.316-3.446-4.689-11.177 5.447-24.24 1.693-2.18 2.382-4.528 2.05-6.975-.726-5.357-6.03-10.033-9.127-12.342a1.608 1.608 0 0 1-.607-1.741 1.674 1.674 0 0 1 1.436-1.223c5.33-.604 18.34 1.041 23.941 29.135 3.092 15.505 5.768 23.589 7.954 24.031.976.197 2.126-1.499 3.139-2.996.544-.805 1.105-1.635 1.693-2.283 1.404-1.547 1.103-3.703.72-6.436-.538-3.827-1.206-8.589 3.031-13.406 1.049-1.193 2.027-2.587 2.908-4.143 3.781-6.673 4.689-14.718 2.489-22.075-15.091-50.476-50.945-93.21-98.368-117.243a2.21 2.21 0 0 0-2.06.033 2.226 2.226 0 0 0-1.144 1.719c-.521 4.976-2.291 11.635-7.761 15.112-4.736 3.01-11.369 3.057-19.718.142l-.053-.021c-.042-.018-4.3-1.958-7.623.468-2.663 1.942-5.458 7.282-3.667 21.69 1.196 9.614 3.239 12.007 4.741 12.32 3.204.669 7.707-6.917 10.395-11.453 1.707-2.882 2.56-4.28 3.237-4.617 1.931-.957 3.727-.955 5.056.009 2.765 2.007 3.445 8.047 2.018 17.951 0 .04-.145 2.115-2.23 3.902-2.436 2.089-6.385 2.889-11.736 2.375-7.055-.679-11.665.858-14.096 4.695-1.883 2.97-.916 8.386 2.031 11.359 2.373 2.395 5.15 2.241 9.354 2.005 2.928-.164 6.576-.368 11.184.245 7.424.987 12.277 3.226 15.82 4.861 3.641 1.68 6.047 2.789 8.947 1.783 4.508-1.565 5.246-6.749 5.836-10.918.463-3.256.862-6.07 3.111-6.07 2.413 0 6.18 2.47 8.961 5.874 1.542 1.888 4.019 5.605 3.277 9.282-.565 2.803-3.263 4.92-5.871 6.964-3.483 2.732-6.771 5.31-5.015 9.231 1.736 3.866 4.473 4.879 7.119 5.857 2.244.831 4.365 1.612 5.402 4.08.686 1.633.067 3.434-1.694 4.943-4.052 3.471-12.686 4.578-19.573.313-5.392-3.34-8.127-2.084-10.542-.978-1.929.885-3.751 1.72-6.207-.309-1.829-1.508-3.076-3.611-4.178-5.466-2.091-3.521-3.604-6.068-7.759-4.368-3.363 1.373-6.109 3.451-9.017 5.65-3.099 2.344-6.611 5.001-11.406 7.162-10.544 4.751-16.35 10.001-16.35 14.78 0 2.068.448 4.248.925 6.554.847 4.113 1.809 8.775.733 14.639-2.072 11.292-.761 19.425 3.895 24.174 4.232 4.318 11.264 5.698 20.898 4.108 4.007-.662 7.585-.992 10.726-.992v-.005Zm-178.141-.002c-1.018 0-2.151-.321-3.393-.962-3.723-1.922-13.079-11.937-21.704-24.76-5.938-8.833-15.803-25.505-15.154-37.938.086-1.661.163-3.259.238-4.8.864-17.975 1.385-28.825 13.767-48.608 2.553-4.079 4.08-9.403 4.538-15.822a19.281 19.281 0 0 1 6.528-13.18l.376.428-.376-.428a213.156 213.156 0 0 1 14.722-11.824 19.174 19.174 0 0 1 14.071-3.544c10.337 1.45 19.412.657 27.745-2.424 9.398-3.476 14.891-5.96 18.525-7.607 4.855-2.199 6.49-2.938 9.635-2.498 5.762.807 10.615 4.994 10.183 8.783-.661 5.809-7.149 8.812-19.279 8.925-7.34.067-13.816 3.88-17.324 10.196-2.172 3.912-2.653 7.961-1.226 10.314 1.422 2.344 2.597 3.437 4.052 3.766 2.508.569 6.284-1.078 13.928-6.084 13.982-9.153 20.582-1.319 21.762.344 1.704 2.4-.299 6.732-2.422 11.319-.946 2.043-1.922 4.155-2.588 6.125-1.168 3.462-1.119 6.687-1.079 9.279.033 2.122.059 3.797-.574 4.96-.925 1.7-4.104 2.924-8.501 4.615-2.373.912-5.063 1.949-7.864 3.237-8.487 3.907-14.323 6.995-17.957 14.048-2.347 4.552-6.707 7.277-10.21 9.464-2.319 1.448-4.321 2.7-4.956 4.01-.567 1.174-.698 3.349-.838 5.654-.271 4.496-.58 9.591-4.017 11.511-4.461 2.494-13.184-.954-16.664-4.405-1.581-1.567-3.711-2.236-5.7-1.785-1.623.368-2.896 1.43-3.405 2.845-1.553 4.309-.477 10.089 3.199 17.182 5.143 9.925 7.784 18.414 7.85 25.228.074 7.72-1.133 12.239-3.688 13.816a4.113 4.113 0 0 1-2.205.611l.005.009Zm10.911-160.484c-3.83 0-7.553 1.212-10.694 3.514a212.188 212.188 0 0 0-14.643 11.761 18.135 18.135 0 0 0-6.144 12.403c-.472 6.608-2.056 12.108-4.709 16.349-12.223 19.528-12.711 29.659-13.594 48.055-.075 1.544-.152 3.142-.238 4.805-1.121 21.458 29.372 58.079 36.241 61.625 1.849.954 3.356 1.088 4.479.395 2.156-1.331 3.214-5.649 3.146-12.833-.063-6.634-2.663-14.95-7.723-24.714-3.828-7.387-4.923-13.474-3.258-18.094.642-1.783 2.221-3.116 4.224-3.57 2.369-.535 4.896.244 6.755 2.087 3.596 3.567 11.667 6.253 15.306 4.22 2.891-1.617 3.181-6.382 3.435-10.585.152-2.524.285-4.704.951-6.082.778-1.607 2.907-2.941 5.376-4.482 3.386-2.115 7.599-4.747 9.802-9.02 4.087-7.93 11.411-11.301 18.494-14.562 2.835-1.305 5.542-2.346 7.931-3.266 4.015-1.546 7.186-2.765 7.91-4.098.491-.901.467-2.442.437-4.396-.042-2.678-.094-6.014 1.137-9.663.684-2.028 1.675-4.169 2.632-6.239 1.892-4.089 3.849-8.316 2.527-10.178-1.074-1.513-7.102-8.632-20.211-.051-8.04 5.263-11.913 6.898-14.804 6.241-2.219-.503-3.657-2.449-4.771-4.286-1.637-2.699-1.166-7.198 1.203-11.462 3.711-6.681 10.556-10.711 18.309-10.784 11.463-.105 17.572-2.77 18.158-7.914.353-3.097-4.208-6.823-9.208-7.525-2.819-.395-4.255.255-9.01 2.407-3.648 1.652-9.162 4.148-18.6 7.638-8.512 3.148-17.768 3.96-28.296 2.482a18.23 18.23 0 0 0-2.548-.178h-.002Zm243.678 282.705a5.108 5.108 0 0 1-1.85-.349 5.094 5.094 0 0 1-3.258-4.681 220.932 220.932 0 0 1-.018-4.432v-1.348c0-7.876 7.989-12.627 12.76-15.467 5.136-3.053 12.878-11.432 13.189-19.718.277-7.462 4.278-10.676 7.809-13.511.787-.632 1.532-1.23 2.231-1.864 3.911-3.556 5.338-12.988 4.416-19.685-1.044-7.593.859-9.675 4.984-11.039 1.749-.578 2.506-2.611 3.176-4.405.705-1.892 1.434-3.85 3.365-3.424 1.004.222 1.84 1.543 2.627 4.161a22.973 22.973 0 0 1 .143 12.714c-8.312 30.242-24.172 58.401-45.865 81.438a5.076 5.076 0 0 1-3.702 1.607l-.007.003Zm46.328-98.836c-.729 0-1.14.887-1.829 2.735-.719 1.934-1.616 4.342-3.884 5.09-3.678 1.214-5.159 2.919-4.213 9.799.983 7.14-.537 16.829-4.778 20.686-.724.66-1.518 1.296-2.284 1.911-3.503 2.814-7.123 5.724-7.382 12.665-.325 8.709-8.394 17.474-13.744 20.655-4.564 2.714-12.201 7.259-12.201 14.487v1.35c-.004 1.425-.009 2.896.019 4.41a3.96 3.96 0 0 0 2.532 3.637 3.941 3.941 0 0 0 4.313-.978c21.565-22.901 37.332-50.897 45.595-80.959a21.841 21.841 0 0 0-.133-12.082c-.916-3.043-1.645-3.347-1.782-3.378a1.158 1.158 0 0 0-.227-.025l-.002-.003Z" fill="#2A2A2A"/>
  <path d="M501.697 459.769H330.41c-2.871 0-5.058-2.729-4.6-5.738l-.005-126.966c.365-2.395 2.316-4.155 4.6-4.155h171.287c2.87 0 4.534 2.092 4.599 5.737l.005 126.967c-.122 2.674-2.315 4.155-4.599 4.155Z" fill="#2A2A2A"/>
  <path d="M497.225 459.923H325.938c-2.87 0-5.058-2.737-4.599-5.754l-.005-126.843c.365-2.403 2.315-4.166 4.599-4.166H497.22c2.871 0 4.534 2.098 4.599 5.754l.006 126.843c-.123 2.682-2.316 4.166-4.6 4.166Z" fill="#fff"/>
  <path d="M497.225 460.257H325.93c-2.615 0-4.813-1.974-5.227-4.698a.536.536 0 0 1-.008-.097l.005-42.313-.005-85.834c0-.031 0-.065.008-.096.414-2.722 2.615-4.698 5.227-4.698h171.287c3.205 0 5.163 2.379 5.236 6.367l.005 126.574c-.143 3.158-2.743 4.795-5.235 4.795h.002Zm-175.258-4.845c.336 2.071 1.997 3.571 3.963 3.571h171.295c1.833 0 3.854-1.11 3.966-3.55l-.008-126.532c-.034-1.899-.597-5.103-3.963-5.103H325.93c-1.966 0-3.627 1.499-3.963 3.57l.005 85.781-.005 42.263Z" fill="#2A2A2A"/>
  <path d="M369.609 384.168h-.021c-13.558-.011-24.579-11.121-24.569-24.769.005-6.61 2.568-12.823 7.214-17.492 4.644-4.667 10.813-7.237 17.373-7.237h.021c13.558.01 24.58 11.12 24.569 24.768-.005 6.61-2.568 12.823-7.214 17.493-4.644 4.667-10.813 7.237-17.373 7.237Zm0-48.224c-6.221 0-12.07 2.437-16.473 6.861-4.409 4.432-6.839 10.324-6.845 16.594-.01 12.943 10.443 23.484 23.3 23.494h.018c6.221 0 12.069-2.437 16.473-6.861 4.409-4.431 6.839-10.323 6.844-16.594.011-12.943-10.442-23.483-23.299-23.494h-.018Z" fill="#2A2A2A"/>
  <path d="M382.703 380.177a.63.63 0 0 1-.537-.295l-12.675-20.026a.641.641 0 0 1 .152-.849l18.817-14.314a.626.626 0 0 1 .477-.123.648.648 0 0 1 .422.256 24.667 24.667 0 0 1 4.73 14.612 24.75 24.75 0 0 1-11.037 20.632.623.623 0 0 1-.352.107h.003Zm-11.825-20.509 12.007 18.976c6.227-4.398 9.926-11.53 9.934-19.206a23.39 23.39 0 0 0-4.112-13.332l-17.829 13.562Z" fill="#2A2A2A"/>
  <path d="m374.737 335.889-4.706 23.622 18.82-14.306c-3.371-4.641-8.349-8.023-14.111-9.316h-.003Z" fill="#386DF5"/>
  <path d="M369.609 366.764c4.031 0 7.298-3.289 7.298-7.347 0-4.057-3.267-7.346-7.298-7.346-4.03 0-7.298 3.289-7.298 7.346 0 4.058 3.268 7.347 7.298 7.347Z" fill="#fff"/>
  <path d="M369.609 367.401h-.008c-4.375-.002-7.931-3.588-7.929-7.991 0-2.131.829-4.137 2.329-5.644a7.852 7.852 0 0 1 5.608-2.335h.008c4.375.003 7.931 3.588 7.929 7.989a7.953 7.953 0 0 1-2.329 5.644 7.852 7.852 0 0 1-5.608 2.335v.002Zm0-14.695c-1.778 0-3.45.697-4.706 1.961a6.685 6.685 0 0 0-1.956 4.745c-.002 3.701 2.986 6.712 6.659 6.717h.006a6.594 6.594 0 0 0 4.706-1.961 6.688 6.688 0 0 0 1.955-4.745c.003-3.701-2.982-6.712-6.659-6.715h-.005v-.002Z" fill="#2A2A2A"/>
  <path d="M433.51 381.809a.637.637 0 0 1-.451-.188l-8.524-8.581a.636.636 0 1 1 .9-.901l8.075 8.127 37.869-38.096a.634.634 0 0 1 .899 0 .633.633 0 0 1 0 .901l-38.317 38.548a.638.638 0 0 1-.451.188v.002Zm-87.646 38.535a.638.638 0 0 1-.449-1.087l22.236-22.384c.24-.24.662-.24.902 0l11.561 11.638 35.835-36.072a.637.637 0 1 1 .9.901l-36.287 36.526a.655.655 0 0 1-.902 0l-11.561-11.637-21.784 21.929a.63.63 0 0 1-.451.188v-.002Z" fill="#386DF5"/>
  <path d="M368.099 399.503a2.174 2.174 0 0 0 2.167-2.181c0-1.204-.97-2.18-2.167-2.18a2.173 2.173 0 0 0-2.166 2.18c0 1.205.97 2.181 2.166 2.181Z" fill="#386DF5"/>
  <path d="M368.1 400.14a2.813 2.813 0 0 1-2.803-2.818 2.813 2.813 0 0 1 2.803-2.818 2.812 2.812 0 0 1 2.802 2.818 2.812 2.812 0 0 1-2.802 2.818Zm0-4.364c-.845 0-1.531.692-1.531 1.546a1.54 1.54 0 0 0 1.531 1.546 1.54 1.54 0 0 0 1.53-1.546 1.54 1.54 0 0 0-1.53-1.546Zm65.477-12.512a2.174 2.174 0 0 0 2.167-2.181c0-1.204-.97-2.18-2.167-2.18a2.173 2.173 0 0 0-2.166 2.18c0 1.205.97 2.181 2.166 2.181Z" fill="#386DF5"/>
  <path d="M433.577 383.901a2.812 2.812 0 0 1-2.802-2.818 2.812 2.812 0 0 1 2.802-2.818 2.813 2.813 0 0 1 2.803 2.818 2.813 2.813 0 0 1-2.803 2.818Zm0-4.364c-.844 0-1.533.692-1.533 1.546a1.54 1.54 0 0 0 1.533 1.544c.845 0 1.531-.692 1.531-1.544 0-.851-.688-1.546-1.531-1.546Zm38.756-34.943a2.174 2.174 0 0 0 2.167-2.181c0-1.204-.97-2.181-2.167-2.181a2.174 2.174 0 0 0-2.167 2.181c0 1.204.97 2.181 2.167 2.181Z" fill="#386DF5"/>
  <path d="M472.333 345.231a2.813 2.813 0 0 1-2.803-2.818 2.813 2.813 0 0 1 2.803-2.818 2.813 2.813 0 0 1 2.803 2.818 2.813 2.813 0 0 1-2.803 2.818Zm0-4.364c-.844 0-1.53.692-1.53 1.546a1.54 1.54 0 0 0 1.53 1.546 1.54 1.54 0 0 0 1.531-1.546 1.54 1.54 0 0 0-1.531-1.546Zm-92.021 70.474a2.173 2.173 0 0 0 2.167-2.18c0-1.205-.97-2.181-2.167-2.181a2.174 2.174 0 0 0-2.167 2.181c0 1.204.97 2.18 2.167 2.18Z" fill="#386DF5"/>
  <path d="M380.312 411.979a2.813 2.813 0 0 1-2.803-2.818 2.813 2.813 0 0 1 2.803-2.818 2.813 2.813 0 0 1 2.803 2.818 2.813 2.813 0 0 1-2.803 2.818Zm0-4.364c-.845 0-1.53.692-1.53 1.546a1.54 1.54 0 0 0 1.53 1.546c.842 0 1.533-.692 1.533-1.546a1.54 1.54 0 0 0-1.533-1.546Zm40.524-36.848a2.173 2.173 0 0 0 2.166-2.18c0-1.205-.97-2.181-2.166-2.181a2.174 2.174 0 0 0-2.167 2.181c0 1.204.97 2.18 2.167 2.18Z" fill="#386DF5"/>
  <path d="M420.836 371.405a2.813 2.813 0 0 1-2.803-2.818 2.813 2.813 0 0 1 2.803-2.818 2.813 2.813 0 0 1 2.803 2.818 2.813 2.813 0 0 1-2.803 2.818Zm0-4.364c-.845 0-1.531.692-1.531 1.546a1.54 1.54 0 0 0 1.531 1.546 1.54 1.54 0 0 0 1.53-1.546 1.54 1.54 0 0 0-1.53-1.546Zm-75.46 55.016a2.174 2.174 0 0 0 2.167-2.181c0-1.204-.97-2.18-2.167-2.18a2.173 2.173 0 0 0-2.166 2.18c0 1.205.97 2.181 2.166 2.181Z" fill="#386DF5"/>
  <path d="M345.376 422.694a2.812 2.812 0 0 1-2.802-2.818 2.812 2.812 0 0 1 2.802-2.818 2.813 2.813 0 0 1 2.803 2.818 2.813 2.813 0 0 1-2.803 2.818Zm0-4.364c-.844 0-1.53.692-1.53 1.544 0 .851.688 1.546 1.53 1.546a1.54 1.54 0 0 0 1.531-1.546c0-.854-.688-1.544-1.531-1.544Z" fill="#386DF5"/>
  <path d="M362.858 452.028h-.075l-3.481-.073c-1.862-.039-3.374-1.596-3.372-3.468l.032-16.814c0-.938.37-1.815 1.035-2.471a3.396 3.396 0 0 1 2.464-.987l3.447.058c1.867.031 3.384 1.582 3.384 3.46v16.832c0 .94-.37 1.82-1.038 2.478a3.413 3.413 0 0 1-2.401.985h.005Zm-3.449-22.538c-.571 0-1.106.219-1.515.621a2.17 2.17 0 0 0-.655 1.562l-.031 16.814c0 1.183.952 2.167 2.125 2.193l3.481.073c.6.027 1.142-.206 1.559-.619.422-.415.657-.971.657-1.566v-16.832c0-1.186-.957-2.168-2.135-2.189l-3.447-.057h-.039Zm15.774 22.538h-.076l-3.48-.073c-1.862-.039-3.374-1.596-3.369-3.466l.037-27.427c0-.938.37-1.815 1.035-2.471a3.396 3.396 0 0 1 2.464-.987l3.446.058c1.867.031 3.385 1.582 3.385 3.46v27.448c0 .94-.368 1.82-1.038 2.476a3.412 3.412 0 0 1-2.401.984l-.003-.002Zm-3.449-33.152a2.14 2.14 0 0 0-1.515.622 2.174 2.174 0 0 0-.655 1.564l-.036 27.427c0 1.183.951 2.168 2.125 2.191l3.481.073a2.089 2.089 0 0 0 1.561-.619c.423-.415.657-.971.657-1.567v-27.448c0-1.185-.956-2.167-2.135-2.185l-3.447-.058h-.036Zm15.774 33.152h-.075l-3.481-.073c-1.862-.039-3.374-1.596-3.371-3.469l.033-21.77a3.45 3.45 0 0 1 1.036-2.471c.662-.65 1.543-1 2.463-.987l3.447.058c1.867.031 3.385 1.582 3.385 3.46v21.791c0 .941-.371 1.821-1.038 2.479a3.416 3.416 0 0 1-2.401.984l.002-.002Zm-3.449-27.498c-.571 0-1.106.22-1.515.622a2.171 2.171 0 0 0-.655 1.564l-.033 21.77c0 1.184.951 2.168 2.125 2.192l3.48.073a2.122 2.122 0 0 0 1.559-.619 2.18 2.18 0 0 0 .658-1.567v-21.791a2.192 2.192 0 0 0-2.136-2.189l-3.447-.057h-.036v.002Zm15.774 27.498h-.076l-3.483-.073c-1.859-.039-3.371-1.593-3.371-3.466l.039-42.825c0-.938.367-1.815 1.035-2.471a3.372 3.372 0 0 1 2.464-.987l3.444.058c1.867.031 3.384 1.585 3.384 3.46v42.846c0 .94-.367 1.82-1.037 2.476-.65.635-1.5.984-2.402.984l.003-.002Zm-3.447-48.553a2.14 2.14 0 0 0-1.515.622 2.177 2.177 0 0 0-.654 1.564l-.039 42.826c0 1.183.951 2.165 2.125 2.191l3.483.073a2.107 2.107 0 0 0 1.562-.619c.422-.415.657-.972.657-1.567v-42.846a2.192 2.192 0 0 0-2.136-2.189l-3.444-.057h-.036l-.003.002Zm15.772 48.553h-.076l-3.483-.073c-1.859-.039-3.372-1.593-3.369-3.466l.039-53.851c0-.938.368-1.815 1.035-2.473a3.394 3.394 0 0 1 2.467-.988l3.444.058c1.867.031 3.384 1.582 3.384 3.46v53.873c0 .94-.37 1.822-1.04 2.478a3.413 3.413 0 0 1-2.401.985v-.003Zm-3.447-59.579c-.571 0-1.106.22-1.515.622a2.177 2.177 0 0 0-.654 1.564l-.04 53.854c0 1.183.952 2.165 2.125 2.189l3.484.073a2.158 2.158 0 0 0 1.559-.619c.425-.415.657-.972.657-1.57V394.69c0-1.186-.957-2.168-2.135-2.186l-3.445-.057h-.036v.002Zm15.709 58.942-3.483-.073a2.818 2.818 0 0 1-2.748-2.826l.039-62.052a2.815 2.815 0 0 1 2.855-2.823l3.444.057a2.814 2.814 0 0 1 2.761 2.823v62.07c0 1.586-1.293 2.86-2.865 2.826l-.003-.002Zm12.387.637h-.075l-3.484-.073c-1.859-.039-3.371-1.593-3.371-3.466l.039-44.081a3.44 3.44 0 0 1 1.035-2.471 3.376 3.376 0 0 1 2.467-.987l3.444.057c1.867.032 3.385 1.586 3.385 3.461v44.099c0 .941-.368 1.821-1.038 2.476a3.413 3.413 0 0 1-2.402.985Zm-3.446-49.806c-.571 0-1.106.219-1.515.621a2.178 2.178 0 0 0-.655 1.565l-.039 44.081c0 1.183.952 2.165 2.125 2.191l3.484.073c.604.026 1.142-.206 1.561-.619.423-.415.657-.971.657-1.567v-44.099c0-1.186-.957-2.168-2.135-2.189l-3.444-.057h-.039Zm15.771 49.806h-.075l-3.484-.073c-1.859-.039-3.371-1.593-3.368-3.463l.039-58.493c0-.937.367-1.817 1.035-2.473a3.41 3.41 0 0 1 2.464-.987l3.444.057c1.867.032 3.385 1.586 3.385 3.461v58.513c0 .94-.368 1.82-1.038 2.476a3.412 3.412 0 0 1-2.402.984v-.002Zm-3.447-64.217a2.14 2.14 0 0 0-1.514.621 2.178 2.178 0 0 0-.655 1.565l-.039 58.492c0 1.183.952 2.165 2.125 2.189l3.483.073a2.096 2.096 0 0 0 1.562-.619 2.18 2.18 0 0 0 .657-1.567v-58.513c0-1.186-.957-2.168-2.135-2.189l-3.444-.057h-.037l-.003.005Zm15.773 64.217h-.076l-3.483-.073c-1.86-.039-3.372-1.593-3.372-3.463l.042-76.058c0-.938.368-1.815 1.035-2.474a3.402 3.402 0 0 1 2.467-.987l3.444.058c1.867.031 3.384 1.582 3.384 3.46v76.079c0 .94-.367 1.82-1.037 2.478-.65.635-1.5.985-2.402.985l-.002-.005Zm-3.447-81.785a2.14 2.14 0 0 0-1.518.624 2.177 2.177 0 0 0-.654 1.564l-.042 76.058c0 1.183.952 2.165 2.125 2.189l3.483.073a2.084 2.084 0 0 0 1.562-.619 2.18 2.18 0 0 0 .657-1.567v-76.079c0-1.186-.957-2.168-2.135-2.189l-3.444-.057h-.037l.003.003Zm15.876 81.148-3.483-.074a2.816 2.816 0 0 1-2.749-2.825l.042-87.863a2.816 2.816 0 0 1 2.855-2.823l3.444.058a2.816 2.816 0 0 1 2.762 2.823v87.88a2.814 2.814 0 0 1-2.866 2.824h-.005Z" fill="#2A2A2A"/>
  <path d="M483.208 381.243c2.898-6.292.194-13.728-6.04-16.609-6.234-2.881-13.638-.117-16.536 6.175-2.899 6.291-.194 13.727 6.04 16.609 6.234 2.881 13.637.117 16.536-6.175Z" fill="#fff"/>
  <path d="M471.845 389.187a12.877 12.877 0 0 1-9.167-3.795 13.04 13.04 0 0 1-3.843-9.315c.01-7.258 5.884-13.189 13.096-13.22a12.956 12.956 0 0 1 9.228 3.795c2.482 2.478 3.846 5.787 3.843 9.315-.01 7.258-5.885 13.189-13.097 13.22h-.06Zm-11.738-13.11a11.778 11.778 0 0 0 3.468 8.412 11.623 11.623 0 0 0 8.27 3.424h.052c6.516-.029 11.822-5.388 11.833-11.948a11.78 11.78 0 0 0-3.468-8.412 11.624 11.624 0 0 0-8.271-3.424h-.052c-6.516.028-11.822 5.387-11.832 11.948Z" fill="#2A2A2A"/>
  <path d="m478.233 370.203-3.793 2.244a.31.31 0 0 0-.011.525l.561.363a.31.31 0 0 1 .091.425l-1.757 2.761a.305.305 0 0 1-.423.094l-3.264-2.108a.306.306 0 0 0-.423.094l-3.926 6.125a.31.31 0 0 0 .091.425l1.192.771a.305.305 0 0 0 .422-.094l2.832-4.406a.303.303 0 0 1 .422-.094l3.262 2.105a.305.305 0 0 0 .422-.094l2.853-4.476a.301.301 0 0 1 .422-.092l.605.392c.193.125.448 0 .469-.23l.407-4.437a.305.305 0 0 0-.459-.293h.005Zm-16.804-210.187-84.981 20.903c-4.4 1.083-6.065 6.232-3.074 9.512l8.754 9.598c2.214 2.428 1.959 6.114-.568 8.243l-48.827 41.096c-2.529 2.129-6.382 1.89-8.603-.538l-50.992-55.721c-2.221-2.426-6.072-2.667-8.604-.538L116.777 320.476c-2.529 2.129-2.779 5.823-.561 8.249l18.639 20.367c2.221 2.426 6.072 2.667 8.604.538l117.374-102.3c2.529-2.128 6.382-1.89 8.603.539l50.973 55.699c2.221 2.426 6.072 2.667 8.602.538l79.161-66.624c2.534-2.131 6.39-1.888 8.609.545l9.439 10.351c3.011 3.303 8.602 2.365 10.267-1.721l32.131-78.852c1.807-4.437-2.38-8.973-7.193-7.789h.004Z" fill="#2A2A2A"/>
  <defs>
    <filter id="a" x=".965" y=".052" width="630.823" height="631.28" filterUnits="userSpaceOnUse" color-interpolation-filters="sRGB">
      <feFlood flood-opacity="0" result="BackgroundImageFix"/>
      <feBlend in="SourceGraphic" in2="BackgroundImageFix" result="shape"/>
      <feGaussianBlur stdDeviation="50" result="effect1_foregroundBlur_65_1888"/>
    </filter>
  </defs>
</svg>
