<svg fill="none" xmlns="http://www.w3.org/2000/svg" viewBox="0 0 48 48">
  <path d="M16.305 26.012c-.114 0-.114 0-.23-.012-1.266-.14-2.19-1.396-2.064-2.804l1.22-14.89C15.353 7 16.343 6 17.527 6h8.926c.256 0 .508.046.75.14 1.204.46 1.844 1.916 1.43 3.254l-2.98 8.21h5.496c.406 0 .804.12 1.156.346 1.1.712 1.476 2.28.836 3.5-.828 1.632-9.16 15.632-11.852 20.15-.214.36-.762.184-.74-.234L21.453 26l-5.148.012Z" fill="#FFEAB5" stroke="#2A2A2A" stroke-width="1.5" stroke-linecap="round" stroke-linejoin="round"/>
</svg>
