<svg fill="none" xmlns="http://www.w3.org/2000/svg" viewBox="0 0 48 48">
  <path d="M12 26C8.666 26 2 28 2 36s6.666 10 10 10h24c3.334 0 10-2 10-10s-6.666-10-10-10H12Z" fill="#B5DBFF" stroke="#2A2A2A" stroke-width="1.5" stroke-linecap="round" stroke-linejoin="round"/>
  <path d="M24 24a6 6 0 1 0 0-12 6 6 0 0 0 0 12ZM8 18h2-2Z" fill="#FFEAB5"/>
  <path d="M38 18h2M24 4V2m13 5-2 2M11 7l2 2m-5 9h2m14 6a6 6 0 1 0 0-12 6 6 0 0 0 0 12Z" stroke="#2A2A2A" stroke-width="1.5" stroke-linecap="round" stroke-linejoin="round"/>
</svg>
