<svg fill="none" xmlns="http://www.w3.org/2000/svg" viewBox="0 0 399 426">
  <g clip-path="url(#a)">
    <path d="M335.251 61.418H95.164c-7.575 0-14.179 6.337-14.754 14.152L66.173 404.983c-.575 7.817 18.302-3.226 25.876-3.226l216.463 23.393c7.574 0 14.178-6.337 14.753-14.152L347.924 75.57c.575-7.818-5.099-14.152-12.673-14.152Z" fill="#2A2A2A"/>
    <path d="M327.539 61.418H87.454c-7.574 0-14.179 6.337-14.753 14.152L48.039 410.998c-.574 7.818 5.1 14.152 12.674 14.152H300.8c7.574 0 14.178-6.337 14.753-14.152L340.212 75.57c.575-7.818-5.099-14.152-12.673-14.152Z" fill="#fff"/>
    <path d="M90.276 230.588h-.04a.543.543 0 0 1-.5-.579l10.745-146.17a.54.54 0 0 1 .54-.501h209.647c.15 0 .295.064.398.172a.53.53 0 0 1 .142.407l-7.041 95.772a.541.541 0 0 1-1.081-.079l6.997-95.19H101.525L90.816 230.09a.541.541 0 0 1-.54.5v-.002Zm197.973 158.804h-127.02a.542.542 0 0 1 0-1.085h126.517l10.922-148.566a.54.54 0 1 1 1.08.079L288.79 388.889a.54.54 0 0 1-.541.501v.002Z" fill="#386DF5"/>
    <path d="M281.222 140.567h-159.01a.556.556 0 0 1-.398-.172.534.534 0 0 1-.142-.408l.695-9.457a.541.541 0 0 1 .54-.501h159.01c.15 0 .295.064.398.172.103.11.155.258.143.407l-.695 9.458a.54.54 0 0 1-.541.501Zm-158.425-1.083h157.922l.616-8.375H123.411l-.617 8.375h.003Zm115.525 19.698H120.844a.535.535 0 0 1-.54-.579l.695-9.458a.54.54 0 0 1 .54-.5h117.479c.149 0 .294.063.397.171a.532.532 0 0 1 .143.408l-.695 9.458a.54.54 0 0 1-.541.5ZM121.429 158.1h116.39l.616-8.375H122.043l-.617 8.375h.003Zm156.089 32.836H118.511a.554.554 0 0 1-.398-.172.53.53 0 0 1-.142-.408l.695-9.457a.54.54 0 0 1 .54-.501h159.008c.149 0 .294.064.397.172a.53.53 0 0 1 .143.408l-.695 9.457a.542.542 0 0 1-.541.501Zm-158.425-1.083h157.922l.616-8.375H119.709l-.616 8.375Zm115.526 19.698H117.141a.553.553 0 0 1-.398-.171.532.532 0 0 1-.143-.408l.695-9.458a.541.541 0 0 1 .541-.5h117.478a.535.535 0 0 1 .54.579l-.695 9.458a.54.54 0 0 1-.54.5Zm-116.894-1.082h116.39l.617-8.375H118.339l-.616 8.375h.002Zm156.09 32.836H114.807a.556.556 0 0 1-.398-.172.533.533 0 0 1-.142-.407l.695-9.458a.541.541 0 0 1 .54-.501H274.51c.15 0 .295.064.398.172.103.11.154.258.142.408l-.695 9.457a.54.54 0 0 1-.54.501Zm-158.426-1.083h157.922l.617-8.375H116.006l-.617 8.375Zm115.526 19.701H113.439a.558.558 0 0 1-.398-.172.533.533 0 0 1-.142-.407l.695-9.458a.541.541 0 0 1 .54-.501h117.479c.149 0 .294.064.397.172a.532.532 0 0 1 .143.408l-.695 9.457a.542.542 0 0 1-.541.501h-.002Zm-116.894-1.083h116.391l.616-8.374h-116.39l-.617 8.374Zm156.092 32.834h-159.01a.554.554 0 0 1-.397-.172.53.53 0 0 1-.143-.407l.695-9.458a.542.542 0 0 1 .54-.501h159.01c.15 0 .295.064.398.172a.532.532 0 0 1 .143.408l-.695 9.457a.54.54 0 0 1-.541.501Zm-158.425-1.083H269.61l.616-8.374H112.302l-.617 8.374h.003Zm115.526 19.701H109.735a.554.554 0 0 1-.397-.172.53.53 0 0 1-.143-.407l.695-9.458a.542.542 0 0 1 .541-.501h117.478a.535.535 0 0 1 .54.58l-.695 9.457a.541.541 0 0 1-.54.501Zm-116.894-1.083h116.39l.617-8.374H110.934l-.616 8.374h.002Zm154.375 33.902H105.688a.554.554 0 0 1-.398-.172.528.528 0 0 1-.142-.407l.695-9.458a.541.541 0 0 1 .54-.501H265.39c.15 0 .295.064.398.172a.532.532 0 0 1 .143.408l-.695 9.457a.54.54 0 0 1-.541.501Zm-158.425-1.083h157.922l.616-8.374H106.886l-.616 8.374Zm115.526 19.701H104.32a.554.554 0 0 1-.398-.172.53.53 0 0 1-.142-.407l.695-9.458a.54.54 0 0 1 .54-.501h117.478c.15 0 .295.064.398.172a.531.531 0 0 1 .142.408l-.695 9.457a.539.539 0 0 1-.54.501h-.002Zm-116.894-1.083h116.39l.617-8.374h-116.39l-.617 8.374Z" fill="#386DF5"/>
    <path d="M64.45 188.326h-.038a.543.543 0 0 1-.502-.579l8.25-112.214c.595-8.08 7.455-14.656 15.294-14.656h240.087c3.726 0 7.147 1.474 9.63 4.145 2.606 2.804 3.878 6.563 3.581 10.59l-6.54 88.972a.546.546 0 0 1-.58.501.544.544 0 0 1-.501-.58l6.541-88.972c.272-3.722-.897-7.192-3.296-9.772-2.277-2.45-5.416-3.8-8.837-3.8H87.452c-7.285 0-13.66 6.123-14.213 13.65l-8.25 112.214a.541.541 0 0 1-.54.501h.002Zm236.349 237.367H162.855a.543.543 0 1 1 0-1.085h137.944c7.285 0 13.661-6.124 14.214-13.651l7.331-99.715a.538.538 0 0 1 .58-.501.544.544 0 0 1 .501.58l-7.332 99.714c-.594 8.08-7.454 14.655-15.294 14.655v.003Z" fill="#2A2A2A"/>
    <path d="M276.043 101.607H139.815c-5.553 0-9.716-4.647-9.294-10.378l1.105-15.038c.961-13.055 11.993-23.64 24.642-23.64H266.8c12.652 0 22.127 10.585 21.167 23.64l-1.105 15.038c-.423 5.733-5.266 10.378-10.819 10.378Z" fill="#2A2A2A"/>
    <path d="M276.043 102.15H139.815c-2.773 0-5.32-1.095-7.169-3.086-1.938-2.085-2.884-4.881-2.665-7.874l1.105-15.039c.978-13.312 12.275-24.14 25.182-24.14H266.8c6.121 0 11.74 2.419 15.822 6.809 4.284 4.606 6.374 10.79 5.888 17.412l-1.106 15.039c-.442 6-5.536 10.881-11.359 10.881l-.002-.002ZM156.268 53.094c-12.351 0-23.165 10.379-24.104 23.138l-1.105 15.039c-.199 2.688.646 5.195 2.378 7.056 1.643 1.768 3.907 2.74 6.375 2.74h136.231c5.268 0 9.878-4.432 10.278-9.877l1.105-15.039c.465-6.317-1.525-12.212-5.599-16.594-3.874-4.167-9.211-6.463-15.029-6.463h-110.53Z" fill="#2A2A2A"/>
    <path d="M272.656 101.607H136.428c-5.553 0-9.716-4.647-9.294-10.378l1.105-15.038c.961-13.055 11.993-23.64 24.642-23.64h110.532c12.652 0 22.127 10.585 21.167 23.64l-1.105 15.038c-.423 5.733-5.266 10.378-10.819 10.378Z" fill="#fff"/>
    <path d="M272.656 102.15H136.428c-2.773 0-5.32-1.095-7.169-3.086-1.938-2.085-2.886-4.881-2.665-7.874l1.105-15.039c.978-13.312 12.276-24.14 25.182-24.14h110.533c6.12 0 11.74 2.419 15.821 6.809 4.284 4.606 6.374 10.79 5.888 17.412l-1.106 15.039c-.442 6-5.538 10.881-11.359 10.881l-.002-.002ZM152.881 53.094c-12.351 0-23.165 10.379-24.104 23.138l-1.105 15.039c-.199 2.688.646 5.195 2.378 7.056 1.643 1.768 3.907 2.74 6.376 2.74h136.23c5.268 0 9.878-4.432 10.278-9.877l1.106-15.039c.464-6.317-1.526-12.212-5.6-16.594-3.874-4.167-9.211-6.463-15.029-6.463h-110.53Z" fill="#2A2A2A"/>
    <path d="M214.162.543c-14.232 0-26.645 11.908-27.726 26.597l-3.048 41.474c-.344 4.677 3.05 8.468 7.584 8.468h35.129c4.532 0 8.486-3.79 8.83-8.468l3.048-41.474c1.08-14.69-9.584-26.597-23.817-26.597Zm-2.129 28.96c-4.428 0-7.744-3.706-7.41-8.275.337-4.57 4.197-8.274 8.626-8.274 4.428 0 7.744 3.705 7.41 8.274-.337 4.57-4.198 8.274-8.626 8.274Z" fill="#2A2A2A"/>
    <path d="M226.101 77.622h-35.129c-2.291 0-4.394-.906-5.921-2.55-1.602-1.722-2.383-4.032-2.201-6.5l3.048-41.474C186.996 12.156 199.674 0 214.162 0c6.867 0 13.172 2.713 17.75 7.638 4.804 5.17 7.152 12.11 6.605 19.539l-3.048 41.474c-.364 4.947-4.566 8.971-9.37 8.971h.002Zm-11.939-76.54c-13.933 0-26.127 11.707-27.186 26.095l-3.048 41.474c-.159 2.165.521 4.183 1.914 5.684 1.321 1.421 3.143 2.204 5.128 2.204h35.129c4.246 0 7.965-3.574 8.289-7.967l3.048-41.474c.523-7.127-1.719-13.776-6.317-18.723-4.372-4.702-10.394-7.292-16.957-7.292Zm-2.129 28.963c-2.242 0-4.301-.887-5.796-2.495-1.567-1.684-2.331-3.943-2.154-6.359.356-4.84 4.467-8.777 9.166-8.777 2.242 0 4.3.886 5.796 2.494 1.567 1.685 2.331 3.943 2.154 6.36-.356 4.838-4.468 8.777-9.166 8.777Zm1.216-16.549c-4.144 0-7.771 3.487-8.086 7.774-.154 2.111.509 4.08 1.867 5.544 1.289 1.387 3.065 2.15 5.003 2.15 4.143 0 7.771-3.486 8.085-7.773.155-2.111-.508-4.08-1.866-5.544-1.29-1.387-3.065-2.15-5.003-2.15Z" fill="#2A2A2A"/>
    <path d="M211.971.543c-14.232 0-26.645 11.908-27.726 26.597l-3.048 41.474c-.344 4.677 3.05 8.468 7.584 8.468h35.129c4.532 0 8.486-3.79 8.83-8.468l3.048-41.474C236.869 12.45 226.204.543 211.971.543Zm-2.129 28.96c-4.428 0-7.744-3.706-7.41-8.275.337-4.57 4.198-8.274 8.626-8.274 4.428 0 7.744 3.705 7.41 8.274-.337 4.57-4.198 8.274-8.626 8.274Z" fill="#fff"/>
    <path d="M223.91 77.622h-35.129c-2.291 0-4.394-.906-5.921-2.55-1.602-1.722-2.383-4.032-2.201-6.5l3.048-41.474C184.805 12.156 197.483 0 211.971 0c6.868 0 13.172 2.713 17.75 7.638 4.804 5.17 7.152 12.11 6.605 19.539l-3.048 41.474c-.364 4.947-4.566 8.971-9.37 8.971h.002Zm-11.939-76.54c-13.933 0-26.127 11.707-27.186 26.095l-3.048 41.474c-.159 2.165.521 4.183 1.914 5.684 1.321 1.421 3.143 2.204 5.128 2.204h35.129c4.246 0 7.965-3.574 8.289-7.967l3.048-41.474c.523-7.127-1.719-13.776-6.317-18.723-4.372-4.702-10.394-7.292-16.957-7.292Zm-2.129 28.963c-2.242 0-4.301-.887-5.796-2.495-1.567-1.684-2.331-3.943-2.154-6.359.356-4.84 4.467-8.777 9.166-8.777 2.242 0 4.3.886 5.796 2.494 1.567 1.685 2.331 3.943 2.154 6.36-.356 4.838-4.468 8.777-9.166 8.777Zm1.216-16.549c-4.144 0-7.771 3.487-8.086 7.774-.154 2.111.509 4.08 1.867 5.544 1.289 1.387 3.065 2.15 5.003 2.15 4.143 0 7.771-3.486 8.085-7.773.155-2.111-.508-4.08-1.866-5.544-1.29-1.387-3.065-2.15-5.003-2.15Zm181.802 88.21a.54.54 0 0 1-.504-.73l1.457-3.94a.54.54 0 0 1 .695-.32c.28.104.425.415.319.695l-1.456 3.941a.54.54 0 0 1-.514.354h.003Zm-3.392 9.18a.545.545 0 0 1-.504-.73l1.457-3.94a.539.539 0 0 1 .695-.319c.28.103.425.415.319.694l-1.456 3.941a.54.54 0 0 1-.513.354h.002Zm-.197-7.528a.548.548 0 0 1-.184-.034l-3.942-1.456a.539.539 0 0 1-.319-.695.539.539 0 0 1 .695-.319l3.942 1.456c.28.103.425.414.319.694a.539.539 0 0 1-.513.354h.002Zm9.184 3.391a.55.55 0 0 1-.185-.035l-3.942-1.456a.54.54 0 0 1-.319-.695.54.54 0 0 1 .695-.319l3.942 1.456c.28.103.425.415.319.695a.539.539 0 0 1-.513.354h.003ZM368.162 53.15a.529.529 0 0 1-.371-.151c-14.889-14.37-32.342-25.999-51.875-34.56a.541.541 0 1 1 .438-.992c19.651 8.613 37.209 20.314 52.191 34.773a.54.54 0 0 1-.381.93h-.002Zm-61.023-38.333a.554.554 0 0 1-.187-.034 195.863 195.863 0 0 0-8.095-2.858.54.54 0 1 1 .336-1.029c2.732.896 5.47 1.864 8.142 2.873a.541.541 0 0 1-.196 1.048Zm43.482 37.227a.536.536 0 0 1-.337-.12c-19.611-15.832-42.612-26.812-68.359-32.64a.54.54 0 1 1 .24-1.056c25.912 5.863 49.06 16.916 68.802 32.853a.54.54 0 0 1-.346.962Zm28.716 15.848a3.614 3.614 0 0 1-3.564-3.3 3.589 3.589 0 0 1 .835-2.634 3.58 3.58 0 0 1 2.454-1.272 3.59 3.59 0 0 1 2.635.835 3.577 3.577 0 0 1 1.272 2.453 3.58 3.58 0 0 1-.835 2.634 3.577 3.577 0 0 1-2.797 1.284Zm.056-6.136c-.081 0-.159 0-.24.01a2.532 2.532 0 0 0-2.302 2.735 2.534 2.534 0 0 0 2.736 2.3 2.532 2.532 0 0 0 2.302-2.734 2.535 2.535 0 0 0-2.496-2.31ZM181.002 367.248H9.715c-2.87 0-5.058-2.729-4.6-5.738L5.11 234.544c.366-2.395 2.316-4.155 4.6-4.155h171.287c2.871 0 4.534 2.092 4.599 5.738l.005 126.966c-.122 2.674-2.315 4.155-4.599 4.155Z" fill="#2A2A2A"/>
    <path d="M176.53 367.402H5.243c-2.87 0-5.058-2.737-4.599-5.753L.639 234.805c.365-2.402 2.315-4.165 4.6-4.165h171.286c2.871 0 4.534 2.097 4.599 5.753l.006 126.844c-.123 2.682-2.316 4.165-4.6 4.165Z" fill="#fff"/>
    <path d="M176.53 367.736H5.235c-2.615 0-4.813-1.974-5.227-4.698a.596.596 0 0 1-.008-.096l.005-42.314L0 234.795c0-.031 0-.065.008-.097C.422 231.977 2.623 230 5.236 230h171.287c3.204 0 5.162 2.379 5.235 6.367l.005 126.575c-.143 3.157-2.743 4.794-5.235 4.794h.002ZM1.272 362.892c.337 2.071 1.998 3.57 3.964 3.57H176.53c1.833 0 3.854-1.11 3.966-3.549l-.008-126.533c-.034-1.898-.597-5.103-3.963-5.103H5.235c-1.965 0-3.626 1.499-3.963 3.57l.006 85.781-.006 42.264Z" fill="#2A2A2A"/>
    <path d="M48.914 291.647h-.02c-13.559-.01-24.58-11.12-24.57-24.768.005-6.61 2.568-12.823 7.215-17.493 4.643-4.667 10.812-7.237 17.372-7.237h.021c13.558.011 24.58 11.12 24.57 24.769-.006 6.61-2.569 12.823-7.215 17.492-4.644 4.667-10.813 7.237-17.373 7.237Zm0-48.223c-6.221 0-12.07 2.436-16.473 6.86-4.41 4.432-6.84 10.324-6.844 16.595-.01 12.943 10.442 23.483 23.299 23.494h.018c6.221 0 12.07-2.437 16.473-6.861 4.41-4.432 6.84-10.324 6.845-16.594.01-12.943-10.443-23.484-23.3-23.494h-.018Z" fill="#2A2A2A"/>
    <path d="M62.008 287.657a.635.635 0 0 1-.537-.295l-12.674-20.026a.64.64 0 0 1 .15-.849l18.818-14.314a.624.624 0 0 1 .477-.123c.17.026.32.117.423.256a24.667 24.667 0 0 1 4.73 14.612 24.752 24.752 0 0 1-11.038 20.632.632.632 0 0 1-.352.107h.003Zm-11.824-20.509 12.007 18.976c6.226-4.398 9.926-11.531 9.933-19.206a23.383 23.383 0 0 0-4.111-13.332l-17.83 13.562Z" fill="#2A2A2A"/>
    <path d="m54.042 243.369-4.706 23.622 18.82-14.306c-3.371-4.641-8.349-8.023-14.111-9.316h-.003Z" fill="#386DF5"/>
    <path d="M48.914 274.243c4.031 0 7.298-3.289 7.298-7.346s-3.267-7.347-7.298-7.347c-4.03 0-7.297 3.29-7.297 7.347s3.267 7.346 7.297 7.346Z" fill="#fff"/>
    <path d="M48.914 274.881h-.008c-4.375-.003-7.931-3.589-7.928-7.992 0-2.131.829-4.137 2.328-5.644a7.853 7.853 0 0 1 5.608-2.334h.008c4.375.002 7.932 3.588 7.929 7.989 0 2.131-.83 4.136-2.328 5.643a7.854 7.854 0 0 1-5.609 2.335v.003Zm0-14.696c-1.778 0-3.45.697-4.706 1.961a6.688 6.688 0 0 0-1.956 4.746c-.002 3.7 2.986 6.712 6.66 6.717h.005c1.778 0 3.45-.698 4.706-1.962a6.686 6.686 0 0 0 1.956-4.745c.002-3.701-2.983-6.712-6.66-6.714h-.005v-.003Z" fill="#2A2A2A"/>
    <path d="M112.815 289.289a.637.637 0 0 1-.451-.188l-8.524-8.582a.637.637 0 0 1 .9-.901l8.075 8.127 37.869-38.095a.635.635 0 0 1 .9 0c.25.251.25.65 0 .901l-38.318 38.547a.638.638 0 0 1-.451.188v.003ZM25.17 327.823a.637.637 0 0 1-.448-1.086l22.234-22.384a.653.653 0 0 1 .902 0L59.42 315.99l35.836-36.072a.637.637 0 0 1 .9.901l-36.287 36.526a.653.653 0 0 1-.902 0l-11.561-11.637-21.785 21.93a.634.634 0 0 1-.45.188v-.003Z" fill="#386DF5"/>
    <path d="M47.405 306.983a2.174 2.174 0 0 0 2.166-2.181c0-1.205-.97-2.181-2.166-2.181a2.174 2.174 0 0 0-2.167 2.181c0 1.204.97 2.181 2.167 2.181Z" fill="#386DF5"/>
    <path d="M47.405 307.62a2.813 2.813 0 0 1-2.803-2.818 2.813 2.813 0 0 1 2.803-2.818 2.813 2.813 0 0 1 2.803 2.818 2.813 2.813 0 0 1-2.803 2.818Zm0-4.364c-.845 0-1.53.692-1.53 1.546a1.54 1.54 0 0 0 1.53 1.546 1.54 1.54 0 0 0 1.53-1.546 1.54 1.54 0 0 0-1.53-1.546Zm65.478-12.512a2.174 2.174 0 0 0 2.166-2.181c0-1.205-.97-2.181-2.166-2.181a2.174 2.174 0 0 0-2.167 2.181c0 1.204.97 2.181 2.167 2.181Z" fill="#386DF5"/>
    <path d="M112.883 291.381a2.813 2.813 0 0 1-2.803-2.818 2.813 2.813 0 0 1 2.803-2.818 2.813 2.813 0 0 1 2.803 2.818 2.813 2.813 0 0 1-2.803 2.818Zm0-4.364a1.54 1.54 0 0 0-1.533 1.546c0 .854.688 1.543 1.533 1.543.844 0 1.53-.692 1.53-1.543 0-.852-.688-1.546-1.53-1.546Zm38.755-34.944a2.173 2.173 0 0 0 2.167-2.18c0-1.205-.97-2.181-2.167-2.181a2.173 2.173 0 0 0-2.166 2.181c0 1.204.97 2.18 2.166 2.18Z" fill="#386DF5"/>
    <path d="M151.639 252.711a2.813 2.813 0 0 1-2.803-2.818 2.813 2.813 0 0 1 2.803-2.818 2.813 2.813 0 0 1 2.803 2.818 2.813 2.813 0 0 1-2.803 2.818Zm0-4.364c-.845 0-1.531.692-1.531 1.546a1.54 1.54 0 0 0 1.531 1.546 1.54 1.54 0 0 0 1.53-1.546 1.54 1.54 0 0 0-1.53-1.546Zm-92.022 70.474a2.174 2.174 0 0 0 2.167-2.181c0-1.204-.97-2.18-2.167-2.18a2.173 2.173 0 0 0-2.166 2.18c0 1.205.97 2.181 2.166 2.181Z" fill="#386DF5"/>
    <path d="M59.618 319.458a2.813 2.813 0 0 1-2.803-2.818 2.813 2.813 0 0 1 2.803-2.818 2.813 2.813 0 0 1 2.802 2.818 2.813 2.813 0 0 1-2.802 2.818Zm0-4.364c-.845 0-1.53.692-1.53 1.546a1.54 1.54 0 0 0 1.53 1.546c.842 0 1.533-.692 1.533-1.546a1.54 1.54 0 0 0-1.533-1.546Zm40.523-36.847a2.174 2.174 0 0 0 2.167-2.181c0-1.204-.97-2.18-2.167-2.18a2.173 2.173 0 0 0-2.167 2.18c0 1.205.97 2.181 2.167 2.181Z" fill="#386DF5"/>
    <path d="M100.141 278.884a2.813 2.813 0 0 1-2.803-2.818 2.813 2.813 0 0 1 2.803-2.818 2.813 2.813 0 0 1 2.803 2.818 2.813 2.813 0 0 1-2.803 2.818Zm0-4.364c-.845 0-1.53.692-1.53 1.546a1.54 1.54 0 0 0 1.53 1.546 1.54 1.54 0 0 0 1.531-1.546 1.54 1.54 0 0 0-1.531-1.546Zm-75.459 55.016a2.173 2.173 0 0 0 2.166-2.18c0-1.205-.97-2.181-2.166-2.181a2.174 2.174 0 0 0-2.167 2.181c0 1.204.97 2.18 2.167 2.18Z" fill="#386DF5"/>
    <path d="M24.682 330.174a2.813 2.813 0 0 1-2.803-2.818 2.813 2.813 0 0 1 2.803-2.818 2.813 2.813 0 0 1 2.803 2.818 2.813 2.813 0 0 1-2.803 2.818Zm0-4.364c-.845 0-1.53.692-1.53 1.543 0 .852.688 1.546 1.53 1.546a1.54 1.54 0 0 0 1.53-1.546c0-.854-.688-1.543-1.53-1.543Z" fill="#386DF5"/>
    <path d="M42.163 359.507h-.075l-3.48-.073c-1.862-.039-3.375-1.595-3.372-3.468l.031-16.814c0-.937.37-1.815 1.035-2.47a3.393 3.393 0 0 1 2.464-.987l3.447.057c1.867.031 3.384 1.583 3.384 3.461v16.831c0 .941-.37 1.821-1.037 2.479a3.42 3.42 0 0 1-2.402.984h.005Zm-3.449-22.538c-.571 0-1.105.22-1.515.622a2.171 2.171 0 0 0-.654 1.561l-.032 16.814c0 1.183.952 2.168 2.125 2.194l3.481.073c.6.026 1.142-.206 1.56-.619.422-.415.657-.972.657-1.567v-16.832a2.19 2.19 0 0 0-2.136-2.188l-3.447-.058h-.039Zm15.774 22.538h-.075l-3.481-.073c-1.862-.039-3.374-1.595-3.369-3.465l.037-27.428c0-.937.37-1.815 1.035-2.47a3.393 3.393 0 0 1 2.464-.987l3.447.057c1.867.031 3.384 1.583 3.384 3.461v27.448c0 .94-.368 1.82-1.038 2.475a3.413 3.413 0 0 1-2.401.985l-.003-.003Zm-3.45-33.151c-.57 0-1.105.219-1.514.621a2.178 2.178 0 0 0-.654 1.564l-.037 27.428c0 1.183.952 2.167 2.125 2.191l3.48.073a2.09 2.09 0 0 0 1.563-.619c.422-.415.657-.972.657-1.567v-27.448c0-1.186-.957-2.168-2.136-2.186l-3.447-.057h-.036Zm15.775 33.151h-.075l-3.481-.073c-1.862-.039-3.374-1.595-3.371-3.468l.034-21.77c0-.938.37-1.816 1.035-2.471.662-.65 1.543-1 2.464-.987l3.447.057c1.866.032 3.384 1.583 3.384 3.461v21.791a3.456 3.456 0 0 1-3.44 3.463l.003-.003Zm-3.45-27.497c-.57 0-1.105.219-1.514.621a2.174 2.174 0 0 0-.654 1.565l-.034 21.77c0 1.183.951 2.168 2.125 2.191l3.48.073a2.12 2.12 0 0 0 1.56-.619 2.18 2.18 0 0 0 .657-1.567v-21.791a2.192 2.192 0 0 0-2.136-2.189l-3.447-.057h-.036v.003Zm15.775 27.497h-.076l-3.483-.073c-1.859-.039-3.371-1.593-3.371-3.465l.039-42.826c0-.937.368-1.815 1.035-2.47a3.37 3.37 0 0 1 2.464-.987l3.444.057c1.867.031 3.385 1.585 3.385 3.46v42.847c0 .94-.368 1.82-1.038 2.475-.65.635-1.5.985-2.402.985l.003-.003Zm-3.447-48.552a2.18 2.18 0 0 0-2.17 2.186l-.038 42.825c0 1.183.951 2.165 2.125 2.191l3.483.073a2.103 2.103 0 0 0 1.562-.619 2.18 2.18 0 0 0 .657-1.567v-42.846a2.192 2.192 0 0 0-2.135-2.188l-3.445-.058h-.036l-.003.003Zm15.772 48.552h-.075l-3.484-.073c-1.859-.039-3.371-1.593-3.369-3.465l.04-53.852c0-.937.367-1.815 1.035-2.473a3.391 3.391 0 0 1 2.466-.987l3.445.057c1.866.032 3.384 1.583 3.384 3.461v53.872c0 .94-.37 1.823-1.04 2.478-.65.635-1.5.985-2.402.985v-.003Zm-3.447-59.578a2.178 2.178 0 0 0-2.17 2.186l-.038 53.854c0 1.183.951 2.165 2.125 2.188l3.483.073a2.153 2.153 0 0 0 1.56-.619c.424-.415.656-.971.656-1.569v-53.873c0-1.185-.957-2.167-2.135-2.185l-3.444-.058h-.037v.003Zm15.709 58.941-3.483-.073c-1.528-.031-2.748-1.29-2.748-2.826l.039-62.052a2.816 2.816 0 0 1 2.855-2.823l3.444.058a2.815 2.815 0 0 1 2.762 2.823v62.07c0 1.585-1.294 2.86-2.866 2.826l-.003-.003Zm12.388.637h-.076l-3.483-.073c-1.859-.039-3.372-1.593-3.372-3.465l.039-44.082c0-.937.368-1.815 1.036-2.47a3.378 3.378 0 0 1 2.466-.988l3.444.058c1.867.031 3.385 1.585 3.385 3.46v44.1c0 .94-.368 1.82-1.038 2.476a3.416 3.416 0 0 1-2.401.984Zm-3.447-49.806c-.571 0-1.106.22-1.515.622a2.178 2.178 0 0 0-.655 1.564l-.039 44.082c0 1.183.952 2.165 2.125 2.191l3.484.073c.605.026 1.142-.206 1.562-.619.422-.415.657-.972.657-1.567v-44.1a2.192 2.192 0 0 0-2.136-2.188l-3.444-.058h-.039Zm15.772 49.806h-.076l-3.483-.073c-1.859-.039-3.372-1.593-3.369-3.463l.039-58.492c0-.938.368-1.818 1.035-2.473a3.412 3.412 0 0 1 2.464-.988l3.444.058c1.867.031 3.385 1.585 3.385 3.46v58.514c0 .94-.368 1.82-1.038 2.475a3.413 3.413 0 0 1-2.401.985v-.003Zm-3.447-64.217c-.571 0-1.106.22-1.515.622a2.177 2.177 0 0 0-.654 1.564l-.04 58.493c0 1.183.952 2.165 2.125 2.188l3.484.073a2.096 2.096 0 0 0 1.562-.619c.422-.415.657-.971.657-1.567v-58.513c0-1.186-.957-2.168-2.136-2.188l-3.444-.058h-.037l-.002.005Zm15.772 64.217h-.076l-3.483-.073c-1.859-.039-3.371-1.593-3.371-3.463l.041-76.058c0-.937.368-1.815 1.035-2.473a3.396 3.396 0 0 1 2.467-.987l3.444.057c1.867.032 3.385 1.583 3.385 3.461v76.079c0 .94-.368 1.82-1.038 2.478a3.413 3.413 0 0 1-2.402.985l-.002-.006Zm-3.447-81.785c-.571 0-1.108.219-1.518.624a2.18 2.18 0 0 0-.654 1.565l-.042 76.058c0 1.183.952 2.165 2.125 2.188l3.484.073a2.081 2.081 0 0 0 1.562-.619c.422-.415.657-.971.657-1.567v-76.079a2.192 2.192 0 0 0-2.136-2.188l-3.444-.058h-.037l.003.003Zm15.876 81.148-3.483-.073a2.816 2.816 0 0 1-2.748-2.826l.041-87.862a2.815 2.815 0 0 1 2.855-2.823l3.445.057a2.816 2.816 0 0 1 2.761 2.823v87.881a2.813 2.813 0 0 1-2.866 2.823h-.005Z" fill="#2A2A2A"/>
    <path d="M162.513 288.723c2.899-6.292.194-13.728-6.04-16.609-6.234-2.882-13.637-.117-16.536 6.174-2.898 6.292-.194 13.728 6.04 16.609 6.235 2.882 13.638.117 16.536-6.174Z" fill="#fff"/>
    <path d="M151.151 296.667a12.878 12.878 0 0 1-9.168-3.795 13.045 13.045 0 0 1-3.843-9.316c.011-7.257 5.885-13.188 13.097-13.22a12.958 12.958 0 0 1 9.227 3.795c2.482 2.478 3.846 5.787 3.843 9.316-.01 7.257-5.884 13.188-13.096 13.22h-.06Zm-11.738-13.111a11.774 11.774 0 0 0 3.467 8.412 11.62 11.62 0 0 0 8.271 3.424h.052c6.516-.029 11.822-5.388 11.832-11.948a11.781 11.781 0 0 0-3.468-8.412 11.626 11.626 0 0 0-8.27-3.424h-.052c-6.516.029-11.822 5.388-11.832 11.948Z" fill="#2A2A2A"/>
    <path d="m157.539 277.683-3.794 2.243a.31.31 0 0 0-.011.525l.561.363a.31.31 0 0 1 .091.426l-1.757 2.76a.303.303 0 0 1-.422.094l-3.265-2.107a.303.303 0 0 0-.422.094l-3.927 6.124a.312.312 0 0 0 .091.426l1.192.77c.143.092.331.05.422-.094l2.832-4.406a.305.305 0 0 1 .422-.094l3.262 2.105c.143.092.331.05.422-.094l2.853-4.476a.301.301 0 0 1 .422-.091l.605.391c.193.126.449 0 .47-.229l.406-4.438a.305.305 0 0 0-.459-.292h.006Zm184.329 136.248a.54.54 0 0 0 .903-.196c7.425-21.373 10.726-44.079 9.814-67.487a.542.542 0 0 0-1.082.042c.907 23.273-2.375 45.846-9.754 67.089a.542.542 0 0 0 .119.552Zm12.423-5.045a.544.544 0 0 0 .912-.219c7.139-24.069 9.418-49.529 6.772-75.675a.545.545 0 0 0-.593-.485.543.543 0 0 0-.485.593c2.632 26.004.366 51.325-6.733 75.258a.543.543 0 0 0 .127.528Zm3.041-78.313a.55.55 0 0 0 .454.166l7.822-.876a.545.545 0 0 0 .427-.301.537.537 0 0 0-.027-.522l-4.656-7.538a.542.542 0 0 0-.968.093l-3.169 8.415a.542.542 0 0 0 .115.563h.002Zm7.306-1.692-6.096.683 2.467-6.556 3.627 5.873h.002ZM35.437 140.136a.54.54 0 0 1-.862-.361l-.548-4.164a.538.538 0 0 1 .467-.606.54.54 0 0 1 .606.466l.548 4.164a.546.546 0 0 1-.211.504v-.003Zm1.277 9.703a.537.537 0 0 1-.862-.361l-.548-4.164a.538.538 0 0 1 .467-.606.54.54 0 0 1 .606.466l.548 4.164a.546.546 0 0 1-.211.504v-.003Zm-3.682-6.57a.548.548 0 0 1-.255.106l-4.166.547a.54.54 0 1 1-.14-1.073l4.166-.547c.297-.04.57.169.606.466a.547.547 0 0 1-.21.504v-.003Zm9.704-1.277a.537.537 0 0 1-.255.106l-4.166.547a.54.54 0 1 1-.14-1.073l4.166-.547a.539.539 0 0 1 .606.466.546.546 0 0 1-.21.504v-.003Zm10.237 31.607a4.89 4.89 0 0 1-5.364.329c-2.375-1.346-3.254-4.363-1.96-6.73a4.78 4.78 0 0 1 2.903-2.318 4.886 4.886 0 0 1 3.775.462c2.375 1.345 3.254 4.363 1.96 6.729a4.76 4.76 0 0 1-1.314 1.528Zm-5.357-7.064a3.693 3.693 0 0 0-1.016 1.183c-1.012 1.849-.32 4.213 1.544 5.267a3.809 3.809 0 0 0 2.943.361 3.7 3.7 0 0 0 2.25-1.798c1.011-1.848.319-4.213-1.545-5.266a3.81 3.81 0 0 0-4.176.25v.003Z" fill="#2A2A2A"/>
  </g>
  <defs>
    <clipPath id="a">
      <path fill="#fff" d="M0 0h399v426H0z"/>
    </clipPath>
  </defs>
</svg>
