<svg fill="none" xmlns="http://www.w3.org/2000/svg" viewBox="0 0 24 24">
  <path d="M5 20v-1c0-1.857.79-3.637 2.197-4.95C8.603 12.737 10.51 12 12.5 12m0 0c1.99 0 3.897.738 5.303 2.05C19.21 15.363 20 17.143 20 19v1m-7.5-8a4.446 4.446 0 0 0 3.03-1.172c.804-.75 1.256-1.767 1.256-2.828 0-1.06-.452-2.078-1.256-2.828A4.446 4.446 0 0 0 12.5 4a4.446 4.446 0 0 0-3.03 1.172C8.666 5.922 8.214 6.939 8.214 8c0 1.06.452 2.078 1.256 2.828A4.446 4.446 0 0 0 12.5 12Z" stroke="#5C5C5C" stroke-width="1.5" stroke-linecap="round" stroke-linejoin="round"/>
</svg>
