<svg fill="none" xmlns="http://www.w3.org/2000/svg" viewBox="0 0 24 24">
  <path d="M6.545 8.313 12 12.03l5.454-3.719" stroke="#5C5C5C" stroke-width="1.5" stroke-linecap="round" stroke-linejoin="round"/>
  <path d="M1.09 16.813V6.188c0-.564.23-1.105.64-1.503a2.209 2.209 0 0 1 1.543-.622h17.454c.579 0 1.134.223 1.543.622.41.398.639.939.639 1.503v10.625c0 .563-.23 1.104-.639 1.502a2.21 2.21 0 0 1-1.543.622H3.273a2.212 2.212 0 0 1-1.543-.622 2.097 2.097 0 0 1-.64-1.503Z" stroke="#5C5C5C" stroke-width="1.5"/>
</svg>
