<svg xmlns="http://www.w3.org/2000/svg" fill="none" viewBox="0 0 899 279">
  <circle cx="705.252" cy="46.081" r="22.5" stroke="#E5E5E5" stroke-width="2" transform="rotate(-13.674 705.252 46.081)"/>
  <path stroke="#E5E5E5" stroke-linecap="round" stroke-linejoin="round" stroke-width="1.5" d="m703.405 37.783-5.882 9.664m9.822 6.53-3.94-16.194 3.94 16.194Zm-3.94-16.194 9.664 5.882-9.664-5.882Z"/>
  <circle cx="196.367" cy="166.805" r="22.5" stroke="#2A2A2A" stroke-width="2" transform="rotate(-13.674 196.367 166.805)"/>
  <path stroke="#2A2A2A" stroke-linecap="round" stroke-linejoin="round" stroke-width="1.5" d="m198.95 173.896 5.882-9.665m-9.822-6.53 3.94 16.195-3.94-16.195Zm3.94 16.195-9.665-5.882 9.665 5.882Z"/>
  <path fill="#E5E5E5" d="M211.022 214.509a1 1 0 1 0-1.823.822l1.823-.822Zm500.528-121.4a1 1 0 1 0-1.997.107l1.997-.107ZM510.567 360.518c-124.02 30.174-248.908-33.735-299.545-146.009l-1.823.822c51.025 113.136 176.869 177.536 301.841 147.13l-.473-1.943ZM709.553 93.216c6.603 122.988-74.966 237.128-198.986 267.302l.473 1.943C636.012 332.055 718.204 217.04 711.55 93.109l-1.997.107Z"/>
  <path fill="#2A2A2A" d="M687.773 3.696a1 1 0 0 0 1.824-.822l-1.824.822ZM187.246 125.095a1 1 0 0 0 1.997-.107l-1.997.107Zm200.983-267.408c124.02-30.174 248.908 33.734 299.544 146.009l1.824-.822c-51.025-113.136-176.869-177.536-301.841-147.131l.473 1.944ZM189.243 124.988C182.64 2 264.209-112.14 388.229-142.313l-.473-1.944C262.784-113.851 180.592 1.164 187.246 125.095l1.997-.107Z"/>
</svg>
