<svg xmlns="http://www.w3.org/2000/svg" fill="none" viewBox="0 0 176 176">
  <path fill="#fff" fill-rule="evenodd" d="M29.333 42.5a1.5 1.5 0 0 1 1.5 1.5v44h-1.5c1.5 0 1.5-.002 1.5-.003v-.007.017l.008.124c.01.12.03.313.072.568.085.51.26 1.269.62 2.195.717 1.843 2.181 4.385 5.193 6.967 6.035 5.173 18.453 10.639 43.94 10.639 25.488 0 37.907-5.466 43.941-10.639 3.012-2.582 4.476-5.124 5.193-6.967.36-.926.535-1.685.62-2.195a6.315 6.315 0 0 0 .079-.692l.001-.017V44a1.5 1.5 0 1 1 3 0v44H132c1.5 0 1.5.002 1.5.004v.014l-.001.026-.001.048-.001.028a5.306 5.306 0 0 1-.014.243 9.632 9.632 0 0 1-.104.829 14.132 14.132 0 0 1-.783 2.79c-.887 2.28-2.632 5.239-6.037 8.157-6.798 5.827-20.046 11.361-45.892 11.361-25.847 0-39.094-5.534-45.893-11.361-3.405-2.918-5.15-5.876-6.037-8.158a14.18 14.18 0 0 1-.783-2.79 9.602 9.602 0 0 1-.118-1.072 3.83 3.83 0 0 1-.002-.075V88.004c0-.002 0-.004 1.5-.004h-1.5V44a1.5 1.5 0 0 1 1.5-1.5Z" clip-rule="evenodd"/>
  <path fill="#2A2A2A" fill-rule="evenodd" d="m30.333 44 .001.026.009.143c.01.134.032.342.077.612.09.54.274 1.333.647 2.294.746 1.917 2.256 4.528 5.334 7.166C42.563 59.522 55.12 65 80.667 65c25.547 0 38.104-5.478 44.265-10.76 3.078-2.637 4.588-5.248 5.334-7.165.374-.961.557-1.753.647-2.294a6.96 6.96 0 0 0 .086-.755L131 44l-.001-.026a6.96 6.96 0 0 0-.086-.755c-.09-.54-.273-1.333-.647-2.294-.746-1.917-2.256-4.528-5.334-7.166C118.771 28.478 106.214 23 80.667 23S42.563 28.478 36.4 33.76c-3.078 2.637-4.588 5.248-5.334 7.165a11.69 11.69 0 0 0-.647 2.294 7.089 7.089 0 0 0-.086.755V44ZM132 44c1 0 1-.001 1-.002v-.033l-.002-.066a8.898 8.898 0 0 0-.112-1.009 13.665 13.665 0 0 0-.756-2.69c-.859-2.208-2.557-5.097-5.896-7.96C119.563 26.523 106.453 21 80.667 21 54.88 21 41.77 26.522 35.099 32.24c-3.34 2.863-5.037 5.752-5.896 7.96a13.675 13.675 0 0 0-.756 2.69 9.117 9.117 0 0 0-.111 1.01c-.002.027-.002.049-.002.066v.032s0 .002 1 .002c-1 0-1 .001-1 .002v.033a3.617 3.617 0 0 0 .015.29c.014.188.043.453.098.785.11.662.328 1.589.756 2.69.86 2.208 2.557 5.097 5.896 7.96C41.771 61.477 54.88 67 80.667 67c25.786 0 38.896-5.522 45.567-11.24 3.339-2.863 5.037-5.752 5.896-7.96.428-1.101.646-2.028.756-2.69a8.898 8.898 0 0 0 .112-1.01v-.022l.002-.044v-.032s0-.002-1-.002ZM29.333 87a1 1 0 0 1 1 1v44h-1c1 0 1-.001 1-.002l.001.028.009.144c.01.133.032.341.077.611.09.541.274 1.333.647 2.294.746 1.917 2.256 4.528 5.334 7.166C42.563 147.522 55.12 153 80.667 153a1 1 0 0 1 0 2c-25.787 0-38.896-5.522-45.568-11.241-3.34-2.862-5.037-5.751-5.896-7.959a13.678 13.678 0 0 1-.756-2.69 9.179 9.179 0 0 1-.111-1.009 3.802 3.802 0 0 1-.002-.067v-.031c0-.002 0-.003 1-.003h-1V88a1 1 0 0 1 1-1Z" clip-rule="evenodd"/>
  <path stroke="#fff" stroke-linecap="round" stroke-linejoin="round" stroke-width="2" d="M30.333 131.996v.002m-1 .002h1V88a1 1 0 0 0-2 0v44h1Zm0 0c1 0 1-.001 1-.002m-1 .002c-1 0-1 .001-1 .003v.031a3.802 3.802 0 0 0 .016.291c.014.188.043.453.098.785.11.662.328 1.589.756 2.69.86 2.208 2.557 5.097 5.896 7.959C41.771 149.478 54.88 155 80.667 155a1 1 0 0 0 0-2c-25.547 0-38.104-5.478-44.266-10.759-3.078-2.638-4.588-5.249-5.334-7.166a11.679 11.679 0 0 1-.647-2.294 7.108 7.108 0 0 1-.086-.755v-.028m0-87.972v-.052l.009-.143c.01-.134.032-.342.077-.612.09-.54.274-1.333.647-2.294.746-1.917 2.256-4.528 5.334-7.166C42.563 28.478 55.12 23 80.667 23c25.547 0 38.104 5.478 44.265 10.76 3.078 2.637 4.588 5.248 5.334 7.165.374.961.557 1.753.647 2.294A6.96 6.96 0 0 1 131 44l-.001.026a6.96 6.96 0 0 1-.086.755c-.09.54-.273 1.333-.647 2.294-.746 1.917-2.256 4.528-5.334 7.166C118.771 59.522 106.214 65 80.667 65S42.563 59.522 36.4 54.24c-3.078-2.637-4.588-5.248-5.334-7.165a11.69 11.69 0 0 1-.647-2.294 7.089 7.089 0 0 1-.086-.755ZM132 44c1 0 1-.001 1-.002v-.033l-.002-.066a8.898 8.898 0 0 0-.112-1.009 13.665 13.665 0 0 0-.756-2.69c-.859-2.208-2.557-5.097-5.896-7.96C119.563 26.523 106.453 21 80.667 21 54.88 21 41.77 26.522 35.099 32.24c-3.34 2.863-5.037 5.752-5.896 7.96a13.675 13.675 0 0 0-.756 2.69 9.117 9.117 0 0 0-.111 1.01c-.002.027-.002.049-.002.066v.032s0 .002 1 .002c-1 0-1 .001-1 .002v.033a3.617 3.617 0 0 0 .015.29c.014.188.043.453.098.785.11.662.328 1.589.756 2.69.86 2.208 2.557 5.097 5.896 7.96C41.771 61.477 54.88 67 80.667 67c25.786 0 38.896-5.522 45.567-11.24 3.339-2.863 5.037-5.752 5.896-7.96.428-1.101.646-2.028.756-2.69a8.898 8.898 0 0 0 .112-1.01v-.022l.002-.044v-.032s0-.002-1-.002Z"/>
  <path fill="#2A2A2A" fill-rule="evenodd" stroke="#fff" stroke-linecap="round" stroke-linejoin="round" stroke-width="2" d="M124.891 117.333a1 1 0 0 1 1-1h34.217a1 1 0 0 1 1 1v25.147a1 1 0 0 1-1 1h-34.217a1 1 0 0 1-1-1v-25.147Zm2 1v23.147h32.217v-23.147h-32.217ZM131 161.334a1 1 0 0 1 1-1h22a1 1 0 1 1 0 2h-22a1 1 0 0 1-1-1Z" clip-rule="evenodd"/>
  <path fill="#fff" d="M82.5 66C49.7 70 33.833 56 30 48.5L28.5 90l9.5 10.5c2.5 2.833 15.5 8.7 47.5 9.5 32 .8 44-13 46-20V48.5c-10.4 15.2-37 18-49 17.5Z"/>
</svg>
