<svg xmlns="http://www.w3.org/2000/svg" fill="none" viewBox="0 0 176 176">
  <path fill="#fff" d="M54.852 30.362c.487-5.21 4.47-9.362 9.414-9.362h32.729c1.06 0 2.105.19 3.109.58 4.971 1.9 7.492 7.82 5.84 13.16a.771.771 0 0 1-.016.046l-10.44 28.762h18.726c1.688 0 3.334.5 4.779 1.427l.003.002c4.498 2.912 5.974 9.236 3.411 14.131-3.073 6.05-33.638 57.407-43.488 73.937-1.357 2.282-4.702 1.077-4.57-1.422v-.006L77.6 96.336l-17.815.041h-.024c-.187 0-.316 0-.447-.006a8.932 8.932 0 0 1-.452-.04l-.024-.003h-.007c-5.274-.584-8.954-5.756-8.454-11.361v-.004l4.474-54.6Z"/>
</svg>
