<svg xmlns="http://www.w3.org/2000/svg" fill="none" viewBox="0 0 176 176">
  <path fill="#fff" fill-rule="evenodd" d="M80.666 13.667a1 1 0 0 1 1 1v22a21 21 0 0 0 21.001 21H110c14.933 0 23 7.533 23 15.666a1 1 0 0 1-2 0c0-6.533-6.6-13.666-21-13.666h-7.333a23 23 0 0 1-23-23v-22a1 1 0 0 1 1-1Z" clip-rule="evenodd"/>
  <path fill="#fff" d="M66 79.2C66 66.242 44 44 44 44S22 66.242 22 79.2c0 12.958 9.849 23.467 22 23.467S66 92.158 66 79.2Z"/>
  <path fill="#fff" fill-rule="evenodd" d="M44.533 43.473 44 44l-.533-.527.533-.54.533.54ZM44 45.077l-.401.42a142.9 142.9 0 0 0-2.48 2.683 149.54 149.54 0 0 0-7.524 9.017c-2.736 3.572-5.459 7.53-7.494 11.386-2.045 3.875-3.351 7.563-3.351 10.617 0 12.59 9.558 22.717 21.25 22.717S65.25 91.79 65.25 79.2c0-3.054-1.306-6.742-3.35-10.617-2.036-3.856-4.759-7.814-7.495-11.386a149.54 149.54 0 0 0-7.525-9.017A142.9 142.9 0 0 0 44 45.077ZM44 44l-.533-.527-.017.017-.049.05-.186.19a143.945 143.945 0 0 0-3.21 3.445 150.995 150.995 0 0 0-7.6 9.11c-2.764 3.608-5.541 7.64-7.63 11.598-2.08 3.94-3.525 7.892-3.525 11.317 0 13.326 10.14 24.217 22.75 24.217S66.75 92.526 66.75 79.2c0-3.425-1.444-7.376-3.524-11.317-2.09-3.958-4.867-7.99-7.63-11.598a150.995 150.995 0 0 0-7.601-9.11 143.945 143.945 0 0 0-3.21-3.444 42.752 42.752 0 0 0-.186-.192l-.049-.049-.017-.017L44 44ZM131 88a1 1 0 0 1 1-1h22a1 1 0 0 1 1 1v66a1 1 0 0 1-1 1H77a1 1 0 0 1-1-1v-33a1 1 0 0 1 .47-.848l29.333-18.333a1 1 0 0 1 1.112.034L131 119.057V88Zm0 33.515-24.704-17.646L78 121.554V153h53v-31.485ZM133 153h20V89h-20v64Z" clip-rule="evenodd"/>
  <path fill="#DCCCFF" d="M126.629 29.507c-1.231-.174-1.962-.174-1.962-.174s.731.092 1.962.174Z"/>
  <path fill="#fff" fill-rule="evenodd" d="M154 13.667a1 1 0 0 1 1 1c0 4.11-1.394 7.243-3.63 9.584-2.213 2.316-5.194 3.799-8.301 4.745-3.048.93-6.287 1.362-9.187 1.537a29.588 29.588 0 0 1 9.614 6.642C149.739 43.615 155 54.614 155 73.334a1 1 0 0 1-2 0c0-18.332-5.14-28.785-10.94-34.765-5.793-5.974-12.368-7.616-15.534-8.066a47.318 47.318 0 0 1-1.837-.16l-.107-.011-.028-.004h-.008l-.002-.001h-.001l.124-.993v-1h.048l.116.004c.098.003.239.009.419.02.353.023.856.067 1.482.154 3.267.215 9.933.346 15.755-1.428 2.914-.888 5.544-2.232 7.437-4.214 1.87-1.957 3.076-4.593 3.076-8.202a1 1 0 0 1 1-1Zm-29.333 15.666v-1a1.001 1.001 0 0 0-.124 1.993l.124-.993Z" clip-rule="evenodd"/>
</svg>
