<svg xmlns="http://www.w3.org/2000/svg" fill="none" viewBox="0 0 176 176">
  <path fill="#fff" fill-rule="evenodd" d="M20.498 101.855c7.845-5.648 17.23-7.522 23.502-7.522h88c6.272 0 15.657 1.874 23.502 7.522 7.896 5.686 14.165 15.153 14.165 30.145 0 14.993-6.269 24.46-14.165 30.145-7.845 5.649-17.23 7.522-23.502 7.522H44c-6.272 0-15.657-1.873-23.502-7.522C12.602 156.46 6.333 146.993 6.333 132c0-14.992 6.27-24.459 14.165-30.145Zm1.169 1.623C14.286 108.793 8.333 117.659 8.333 132s5.953 23.207 13.334 28.522c7.432 5.351 16.38 7.145 22.333 7.145h88c5.952 0 14.901-1.794 22.333-7.145 7.381-5.315 13.334-14.181 13.334-28.522s-5.953-23.207-13.334-28.522c-7.432-5.35-16.381-7.144-22.333-7.144H44c-5.952 0-14.901 1.793-22.333 7.144ZM88 6.333a1 1 0 0 1 1 1v7.334a1 1 0 0 1-2 0V7.334a1 1 0 0 1 1-1ZM39.626 24.96a1 1 0 0 1 1.415 0l7.333 7.333a1 1 0 1 1-1.414 1.414l-7.334-7.333a1 1 0 0 1 0-1.414Zm96.748 0a1 1 0 0 1 0 1.414l-7.333 7.333a1.001 1.001 0 0 1-1.415-1.414l7.334-7.333a1 1 0 0 1 1.414 0ZM71.737 49.737a23 23 0 1 1 32.527 32.527 23 23 0 0 1-32.527-32.527ZM28.334 66a1 1 0 0 1 1-1h7.333a1 1 0 1 1 0 2h-7.334a1 1 0 0 1-1-1Zm109.999 0a1 1 0 0 1 1-1h7.334a1 1 0 0 1 0 2h-7.334a1 1 0 0 1-1-1Z" clip-rule="evenodd"/>
</svg>
